<svg xmlns="http://www.w3.org/2000/svg" width="3000" height="3000" id="female-ui-ux-designer-working-on-application-design"><path fill="#FFF" d="M0 0h3000v3000H0z"></path><path fill="#B99FD1" d="M2410.25 759.55c48.41 0 92.25 19.63 123.98 51.36 31.729 31.729 51.359 75.56 51.359 123.979 0 48.41-19.63 92.25-51.359 123.98-31.73 31.729-75.57 51.359-123.98 51.359-48.42 0-92.25-19.63-123.98-51.359-31.739-31.73-51.359-75.57-51.359-123.98 0-48.42 19.62-92.25 51.359-123.979 31.73-31.73 75.56-51.36 123.98-51.36zm77.71 97.62c-19.88-19.88-47.36-32.19-77.71-32.19s-57.83 12.311-77.72 32.19c-19.89 19.89-32.19 47.37-32.19 77.72 0 30.351 12.301 57.83 32.19 77.721 19.89 19.88 47.37 32.189 77.72 32.189s57.83-12.31 77.71-32.189c19.89-19.891 32.19-47.37 32.19-77.721 0-30.35-12.3-57.83-32.19-77.72z"></path><path fill="#B99FD1" d="M2410.25 713.08h-36.04l-30.46 86.09h133l-30.47-86.09zm0 443.62h-36.04l-30.46-86.09h133l-30.47 86.09z"></path><path fill="#B99FD1" d="m2253.4 778.05-25.48 25.48 39.33 82.41 94.05-94.04-82.41-39.34zm313.69 313.679-25.48 25.481-82.421-39.33 94.051-94.04 39.33 82.41zm0-313.679-25.48-25.49-82.421 39.34 94.051 94.04 39.33-82.41zm-313.69 313.679-25.48-25.479 39.33-82.41 94.05 94.04-82.41 39.33z"></path><path fill="#B99FD1" d="M2632.061 934.89v-36.04l-86.091-30.46v133l86.091-30.46zm-443.622 0v-36.04l86.091-30.46v133l-86.091-30.46z"></path><path fill="#353640" d="M2454.83 1158.785h-74.471a2.085 2.085 0 0 1-1.966-1.39l-19.95-56.384a183.124 183.124 0 0 1-21.681-8.983l-53.984 25.764c-.8.381-1.748.216-2.373-.408l-52.65-52.66a2.086 2.086 0 0 1-.407-2.372l25.764-53.975a183.252 183.252 0 0 1-8.992-21.69l-56.375-19.941a2.086 2.086 0 0 1-1.39-1.966v-74.47c0-.883.557-1.671 1.39-1.966l56.375-19.951a183.19 183.19 0 0 1 8.991-21.68l-25.763-53.984a2.086 2.086 0 0 1 .407-2.372l52.65-52.65a2.086 2.086 0 0 1 2.373-.408l53.983 25.763a181.96 181.96 0 0 1 21.682-8.983l19.95-56.383a2.085 2.085 0 0 1 1.966-1.39h74.471c.884 0 1.671.557 1.966 1.39l19.94 56.383a181.443 181.443 0 0 1 21.682 8.983l53.983-25.763a2.085 2.085 0 0 1 2.372.407l52.661 52.651c.624.625.787 1.575.407 2.372l-25.764 53.986a184.467 184.467 0 0 1 8.982 21.679l56.385 19.951a2.086 2.086 0 0 1 1.39 1.966v74.471c0 .883-.557 1.671-1.39 1.966l-56.385 19.941a183.834 183.834 0 0 1-8.982 21.679l25.764 53.986c.38.797.217 1.748-.407 2.372l-52.66 52.66a2.086 2.086 0 0 1-2.373.408l-53.975-25.764a183.29 183.29 0 0 1-21.69 8.984l-19.94 56.383a2.085 2.085 0 0 1-1.966 1.388zm-72.997-4.17h71.522l19.788-55.95a2.084 2.084 0 0 1 1.306-1.282 178.885 178.885 0 0 0 23.031-9.539 2.09 2.09 0 0 1 1.828-.016l53.56 25.565 50.575-50.576-25.565-53.57a2.086 2.086 0 0 1 .016-1.829 179.646 179.646 0 0 0 9.54-23.022 2.085 2.085 0 0 1 1.281-1.303l55.95-19.788v-71.522l-55.95-19.798a2.08 2.08 0 0 1-1.281-1.303 180.346 180.346 0 0 0-9.54-23.022 2.087 2.087 0 0 1-.016-1.828l25.565-53.57-50.575-50.566-53.569 25.565a2.09 2.09 0 0 1-1.831-.017c-7.4-3.7-15.146-6.909-23.019-9.538a2.086 2.086 0 0 1-1.306-1.282l-19.788-55.95h-71.522l-19.797 55.95a2.084 2.084 0 0 1-1.306 1.282 177.719 177.719 0 0 0-23.02 9.538 2.092 2.092 0 0 1-1.83.017l-53.569-25.565-50.565 50.566 25.565 53.57c.276.58.271 1.255-.017 1.831a178.57 178.57 0 0 0-9.549 23.021 2.086 2.086 0 0 1-1.281 1.302l-55.94 19.797v71.523l55.94 19.788a2.083 2.083 0 0 1 1.281 1.303 179.091 179.091 0 0 0 9.549 23.032c.287.575.293 1.25.017 1.83l-25.565 53.56 50.566 50.576 53.568-25.565a2.083 2.083 0 0 1 1.829.016 178.767 178.767 0 0 0 23.021 9.539 2.09 2.09 0 0 1 1.305 1.282l19.798 55.948zm35.757-111.44c-30.896 0-59.934-12.029-81.765-33.871-21.835-21.835-33.86-50.873-33.86-81.764s12.025-59.929 33.86-81.764c21.836-21.835 50.874-33.861 81.765-33.861 30.892 0 59.929 12.025 81.765 33.861 21.841 21.831 33.87 50.869 33.87 81.764s-12.029 59.933-33.871 81.765c-21.831 21.841-50.869 33.87-81.764 33.87zm0-227.09c-29.777 0-57.768 11.591-78.815 32.639s-32.64 49.039-32.64 78.816 11.592 57.768 32.64 78.816c21.044 21.054 49.034 32.649 78.815 32.649s57.771-11.595 78.815-32.649c21.055-21.044 32.649-49.035 32.649-78.816 0-29.781-11.595-57.771-32.648-78.815-21.049-21.049-49.039-32.64-78.816-32.64z"></path><path fill="#FC0" d="M2519.4 466.92c24.619 0 46.909 9.98 63.05 26.12 16.13 16.13 26.11 38.42 26.11 63.04 0 24.63-9.98 46.92-26.11 63.05-16.14 16.141-38.431 26.12-63.05 26.12-24.621 0-46.92-9.979-63.051-26.12-16.14-16.13-26.12-38.42-26.12-63.05 0-24.62 9.98-46.91 26.12-63.04 16.13-16.14 38.43-26.12 63.051-26.12zm39.52 49.64c-10.11-10.109-24.09-16.369-39.52-16.369-15.44 0-29.41 6.26-39.53 16.369-10.11 10.11-16.37 24.091-16.37 39.521 0 15.44 6.26 29.42 16.37 39.53 10.12 10.109 24.09 16.369 39.53 16.369 15.43 0 29.409-6.26 39.52-16.369 10.11-10.11 16.37-24.091 16.37-39.53 0-15.431-6.26-29.411-16.37-39.521z"></path><path fill="#FC0" d="M2519.4 443.28h-18.33l-15.49 43.78h67.64l-15.5-43.78zm0 225.6h-18.33l-15.49-43.77h67.64l-15.5 43.77z"></path><path fill="#FC0" d="m2439.64 476.32-12.96 12.96 20 41.91 47.83-47.82-41.91-20.01zm159.52 159.53-12.96 12.96-41.91-20.01 47.83-47.821 20 41.911zm0-159.53-12.96-12.96-41.91 20.01 47.83 47.82 20-41.91zm-159.52 159.53-12.96-12.96 20-41.911 47.83 47.821-41.91 20.01z"></path><path fill="#FC0" d="M2632.2 556.08v-18.32l-43.78-15.489V589.9l43.78-15.49zm-225.6 0v-18.32l43.78-15.489V589.9l-43.78-15.49z"></path><path fill="#353640" d="M2542.07 670.965h-37.87a2.086 2.086 0 0 1-1.966-1.389l-9.982-28.199a94.185 94.185 0 0 1-10.227-4.239l-27.008 12.884a2.083 2.083 0 0 1-2.372-.408l-26.779-26.779a2.084 2.084 0 0 1-.407-2.373l12.895-26.998a93.699 93.699 0 0 1-4.241-10.236l-28.207-9.982a2.084 2.084 0 0 1-1.39-1.965v-37.87c0-.884.557-1.671 1.39-1.966l28.206-9.973a91.964 91.964 0 0 1 4.241-10.237l-12.894-27.006a2.086 2.086 0 0 1 .408-2.374l26.778-26.77a2.087 2.087 0 0 1 2.372-.408l27.008 12.885a93.99 93.99 0 0 1 10.227-4.239l9.982-28.209a2.085 2.085 0 0 1 1.966-1.389h37.87c.884 0 1.671.557 1.966 1.389l9.983 28.209a95.205 95.205 0 0 1 10.225 4.24l27.009-12.885a2.086 2.086 0 0 1 2.372.408l26.77 26.771c.624.625.787 1.575.407 2.372l-12.886 27.008a94.677 94.677 0 0 1 4.241 10.235l28.208 9.974a2.084 2.084 0 0 1 1.39 1.966v37.87c0 .883-.557 1.671-1.39 1.965l-28.209 9.983a94.35 94.35 0 0 1-4.239 10.227l12.885 27.007c.38.797.217 1.747-.407 2.372l-26.77 26.78a2.083 2.083 0 0 1-2.372.408l-27.009-12.885a94.58 94.58 0 0 1-10.234 4.24l-9.974 28.198a2.086 2.086 0 0 1-1.966 1.388zm-36.396-4.17h34.923l9.818-27.761a2.086 2.086 0 0 1 1.304-1.282 90.36 90.36 0 0 0 11.582-4.798 2.089 2.089 0 0 1 1.827-.016l26.59 12.685 24.687-24.695-12.687-26.59a2.087 2.087 0 0 1 .017-1.831 89.833 89.833 0 0 0 4.799-11.571 2.086 2.086 0 0 1 1.281-1.302l27.771-9.828v-34.922l-27.771-9.819a2.084 2.084 0 0 1-1.281-1.304 90.197 90.197 0 0 0-4.8-11.581 2.09 2.09 0 0 1-.016-1.829l12.686-26.59-24.686-24.686-26.59 12.686a2.087 2.087 0 0 1-1.828-.016 90.684 90.684 0 0 0-11.573-4.799 2.088 2.088 0 0 1-1.302-1.281l-9.828-27.771h-34.923l-9.827 27.771a2.086 2.086 0 0 1-1.302 1.281 90.06 90.06 0 0 0-11.572 4.798 2.082 2.082 0 0 1-1.83.017l-26.59-12.686-24.695 24.687 12.695 26.589a2.085 2.085 0 0 1-.018 1.833 87.515 87.515 0 0 0-4.796 11.573 2.089 2.089 0 0 1-1.283 1.308l-27.771 9.819v34.922l27.771 9.828a2.082 2.082 0 0 1 1.282 1.306 89.465 89.465 0 0 0 4.799 11.58 2.09 2.09 0 0 1 .016 1.829l-12.695 26.58 24.695 24.695 26.59-12.685a2.079 2.079 0 0 1 1.83.017 90.05 90.05 0 0 0 11.571 4.797 2.085 2.085 0 0 1 1.303 1.281l9.827 27.761zm17.456-54.62c-15.981 0-31.006-6.222-42.305-17.521-11.298-11.298-17.521-26.322-17.521-42.304 0-15.993 6.223-31.017 17.521-42.305 11.306-11.304 26.329-17.53 42.304-17.53 15.98 0 31.008 6.226 42.314 17.53 11.298 11.299 17.521 26.323 17.521 42.305 0 15.971-6.222 30.995-17.521 42.304-11.297 11.299-26.325 17.521-42.313 17.521zm0-115.49c-14.86 0-28.838 5.792-39.355 16.309-10.512 10.501-16.3 24.478-16.3 39.356 0 14.868 5.789 28.845 16.3 39.356 10.511 10.511 24.487 16.299 39.355 16.299 14.874 0 28.854-5.789 39.365-16.299 10.511-10.521 16.3-24.498 16.3-39.356 0-14.868-5.789-28.845-16.3-39.356-10.517-10.517-24.498-16.309-39.365-16.309zm-1366.39 2052.72h-.042l-272.889-.24c-7.288-.005-14.156-2.867-19.338-8.06-5.181-5.19-8.031-12.061-8.025-19.347l.239-272.891c.012-15.088 12.29-27.363 27.37-27.363l272.938.24c7.284.006 14.15 2.868 19.333 8.06s8.035 12.063 8.029 19.348l-.25 272.899c-.011 15.084-12.287 27.354-27.365 27.354zm-272.652-323.73c-12.816 0-23.224 10.406-23.233 23.197l-.239 272.891c-.005 6.171 2.413 11.995 6.807 16.397 4.395 4.403 10.216 6.831 16.39 6.835l272.89.24.036 2.085v-2.085c12.782.001 23.188-10.4 23.197-23.187l.25-272.9c.005-6.171-2.414-11.994-6.81-16.397-4.396-4.403-10.215-6.831-16.386-6.836l-272.902-.24z"></path><path fill="#59BD9F" d="M1155.29 2230.899 910.47 2242.5c-12.489.59-22.22 11.29-21.63 23.78l11.6 244.82c.591 12.479 11.291 22.209 23.78 21.619l244.82-11.6c12.479-.59 22.21-11.29 21.62-23.77l-11.6-244.82c-.59-12.489-11.29-22.219-23.77-21.63z"></path><path fill="#353640" d="M1215.568 2541.075a.067.067 0 0 0-.02 0l-272.89-.24c-7.288-.005-14.156-2.868-19.338-8.061-5.18-5.192-8.031-12.066-8.025-19.356l.25-272.89c.011-15.088 12.296-27.363 27.387-27.363l272.91.25c7.288.005 14.155 2.867 19.337 8.06 5.181 5.19 8.031 12.061 8.026 19.347l-.24 272.891c-.021 15.087-12.313 27.362-27.397 27.362zm-272.62-323.74c-12.809 0-23.225 10.406-23.233 23.197l-.25 272.89c-.004 6.176 2.413 12.003 6.808 16.406 4.395 4.404 10.215 6.833 16.389 6.837l272.89.24.016 2.085v-2.085c12.79 0 23.209-10.406 23.227-23.198l.24-272.89c.004-6.171-2.413-11.995-6.807-16.397-4.396-4.403-10.216-6.831-16.39-6.835l-272.89-.25z"></path><path fill="#FC0" d="m1249.89 2252.149-249.63-12.189c-12.729-.62-23.649 9.29-24.27 22.02l-12.19 249.621c-.62 12.729 9.29 23.649 22.021 24.279l249.619 12.18c12.73.621 23.66-9.279 24.28-22.01l12.181-249.63c.629-12.73-9.281-23.649-22.011-24.271z"></path><path fill="#353640" d="M1246.804 2543.502c-.41 0-.822-.01-1.235-.03l-249.63-12.189c-6.712-.326-12.911-3.266-17.454-8.275-4.542-5.009-6.864-11.465-6.537-18.178l12.189-249.631c.676-13.879 12.421-24.67 26.455-23.991l249.62 12.181c13.912.688 24.678 12.561 24 26.464l-12.19 249.62c-.655 13.473-11.732 24.029-25.218 24.029zm-237.447-308.154c-11.259 0-20.507 8.809-21.055 20.054l-12.189 249.631c-.565 11.612 8.419 21.52 20.029 22.085l249.63 12.19c11.695.578 21.521-8.446 22.085-20.039l12.19-249.62c.565-11.608-8.425-21.521-20.041-22.097l-249.618-12.18a20.948 20.948 0 0 0-1.031-.024z"></path><path fill="#EFF3F7" d="m1198.57 2491.71-93.91-131.66-97.77 122.301z"></path><path fill="#FFF" d="m1249.9 2494.21-76.54-107.3-79.68 99.68zm-82.18-183.4c-13.93-.68-25.76 10.061-26.439 23.98-.681 13.92 10.05 25.76 23.979 26.439 13.92.681 25.76-10.05 26.44-23.979.68-13.92-10.06-25.76-23.98-26.44z"></path><path fill="#949899" d="M793.74 2678.31h398.72v-238.331H793.74z"></path><path fill="#353640" d="M1316.65 2678.31h-124.19v-238.331h124.19z"></path><path fill="#2A1D19" d="M1316.65 2680.395H793.74a2.086 2.086 0 0 1 0-4.17h522.91a2.086 2.086 0 0 1 0 4.17zm-124.19-57.7a2.086 2.086 0 0 1-2.085-2.085v-180.631a2.086 2.086 0 0 1 4.17 0v180.631a2.085 2.085 0 0 1-2.085 2.085z"></path><path fill="#E1ECF2" d="M1645.24 350.86h124.57v23.27c0 15.31 12.52 27.83 27.829 27.83h297.63c15.301 0 27.83-12.52 27.83-27.83v-23.27h124.561c52.46 0 95.38 42.92 95.38 95.38v1420.35c0 52.46-42.92 95.38-95.38 95.38h-602.42c-52.46 0-95.38-42.92-95.38-95.38V446.24c0-52.46 42.92-95.38 95.38-95.38z"></path><path fill="#353640" d="M2224.75 1934.895h-602.42c-53.742 0-97.465-43.723-97.465-97.465V417.07c0-53.742 43.723-97.465 97.465-97.465h124.56c1.151 0 2.085.934 2.085 2.085v23.28c0 14.196 11.549 25.745 25.745 25.745h297.63c14.196 0 25.745-11.549 25.745-25.745v-23.28c0-1.151.934-2.085 2.085-2.085h124.57c53.742 0 97.465 43.723 97.465 97.465v1420.36c0 53.742-43.723 97.465-97.465 97.465zm-602.42-1611.12c-51.443 0-93.295 41.852-93.295 93.295v1420.36c0 51.443 41.852 93.295 93.295 93.295h602.42c51.443 0 93.295-41.852 93.295-93.295V417.07c0-51.443-41.852-93.295-93.295-93.295h-122.485v21.195c0 16.495-13.42 29.915-29.915 29.915h-297.63c-16.495 0-29.915-13.42-29.915-29.915v-21.195H1622.33z"></path><path fill="#949899" d="M2248.939 1643.105h-650.81a2.086 2.086 0 0 1-2.085-2.085v-98.391c0-1.151.934-2.085 2.085-2.085h650.81c1.151 0 2.085.934 2.085 2.085v98.391a2.084 2.084 0 0 1-2.085 2.085zm-648.724-4.169h646.64v-94.221h-646.64v94.221z"></path><path fill="#EFF3F7" d="M1617.29 1671.229h612.5v9.371h-612.5zm0 34.371h612.5v9.37h-612.5zm0 34.379h431.78v9.371h-431.78z"></path><path fill="#949899" d="M1873.939 887.185h-275.81a2.086 2.086 0 0 1-2.085-2.085V609.29c0-1.151.934-2.085 2.085-2.085h275.81c1.151 0 2.085.934 2.085 2.085V885.1a2.085 2.085 0 0 1-2.085 2.085zm-273.724-4.17h271.64v-271.64h-271.64v271.64z"></path><path fill="#949899" d="M1840.41 853.655a2.083 2.083 0 0 1-1.475-.611L1736.04 750.149l-102.896 102.896a2.086 2.086 0 0 1-2.949-2.948L1733.092 747.2l-102.896-102.896a2.085 2.085 0 1 1 2.949-2.948l102.896 102.896 102.896-102.896a2.086 2.086 0 0 1 2.949 2.948L1738.988 747.2l102.896 102.896a2.085 2.085 0 0 1-1.474 3.559z"></path><path fill="#EFF3F7" d="M1620.57 924.01h230.93v9.37h-230.93zm0 34.37h230.93v9.37h-230.93zm0 34.38h162.8v9.37h-162.8z"></path><path fill="#949899" d="M2248.939 887.185h-275.81a2.086 2.086 0 0 1-2.085-2.085V609.29c0-1.151.934-2.085 2.085-2.085h275.81c1.151 0 2.085.934 2.085 2.085V885.1a2.085 2.085 0 0 1-2.085 2.085zm-273.724-4.17h271.64v-271.64h-271.64v271.64z"></path><path fill="#949899" d="M2215.41 853.655a2.083 2.083 0 0 1-1.475-.611L2111.04 750.149l-102.896 102.896a2.086 2.086 0 0 1-2.949-2.948L2108.092 747.2l-102.896-102.896a2.085 2.085 0 1 1 2.949-2.948l102.896 102.896 102.896-102.896a2.086 2.086 0 0 1 2.949 2.948L2113.988 747.2l102.896 102.896a2.085 2.085 0 0 1-1.474 3.559z"></path><path fill="#EFF3F7" d="M1995.57 924.01h230.93v9.37h-230.93zm0 34.37h230.93v9.37h-230.93zm0 34.38h162.8v9.37h-162.8z"></path><path fill="#949899" d="M1873.939 1353.855h-275.81a2.086 2.086 0 0 1-2.085-2.085v-275.81c0-1.151.934-2.085 2.085-2.085h275.81c1.151 0 2.085.934 2.085 2.085v275.811a2.084 2.084 0 0 1-2.085 2.084zm-273.724-4.169h271.64v-271.641h-271.64v271.641z"></path><path fill="#949899" d="M1840.41 1320.314a2.087 2.087 0 0 1-1.475-.61l-102.896-102.891-102.896 102.891a2.086 2.086 0 0 1-2.949-2.948l102.896-102.891-102.896-102.891a2.086 2.086 0 0 1 2.949-2.948l102.896 102.891 102.896-102.891a2.086 2.086 0 0 1 2.949 2.948l-102.896 102.891 102.896 102.891a2.086 2.086 0 0 1-1.474 3.558z"></path><path fill="#EFF3F7" d="M1620.57 1390.67h230.93v9.38h-230.93zm0 34.38h230.93v9.37h-230.93zm0 34.37h162.8v9.37h-162.8z"></path><path fill="#949899" d="M2248.939 1353.855h-275.81a2.086 2.086 0 0 1-2.085-2.085v-275.81c0-1.151.934-2.085 2.085-2.085h275.81c1.151 0 2.085.934 2.085 2.085v275.811a2.084 2.084 0 0 1-2.085 2.084zm-273.724-4.169h271.64v-271.641h-271.64v271.641z"></path><path fill="#949899" d="M2215.41 1320.314a2.087 2.087 0 0 1-1.475-.61l-102.896-102.891-102.896 102.891a2.086 2.086 0 0 1-2.949-2.948l102.896-102.891-102.896-102.891a2.086 2.086 0 0 1 2.949-2.948l102.896 102.891 102.896-102.891a2.086 2.086 0 0 1 2.949 2.948l-102.896 102.891 102.896 102.891a2.086 2.086 0 0 1-1.474 3.558z"></path><path fill="#EFF3F7" d="M1995.57 1390.67h230.93v9.38h-230.93zm0 34.38h230.93v9.37h-230.93zm0 34.37h162.8v9.37h-162.8z"></path><path fill="#949899" d="M2248.939 542.064h-650.81a2.086 2.086 0 0 1-2.085-2.085v-24.6c0-1.151.934-2.085 2.085-2.085h650.81c1.151 0 2.085.934 2.085 2.085v24.6a2.084 2.084 0 0 1-2.085 2.085zm-648.724-4.169h646.64v-20.43h-646.64v20.43z"></path><path fill="#E1ECF2" d="M740 464.04h124.57v23.28c0 15.3 12.52 27.83 27.83 27.83h297.63c15.3 0 27.83-12.53 27.83-27.83v-23.28h124.56c52.46 0 95.38 42.92 95.38 95.38v1420.36c0 52.46-42.92 95.38-95.38 95.38H740c-52.46 0-95.38-42.92-95.38-95.38V559.42c0-52.46 42.92-95.38 95.38-95.38z"></path><path fill="#353640" d="M1317.42 2045.995H715c-53.742 0-97.465-43.723-97.465-97.465V528.17c0-53.742 43.723-97.465 97.465-97.465h124.57c1.151 0 2.085.934 2.085 2.085v23.28c0 14.196 11.549 25.745 25.745 25.745h297.63c14.196 0 25.745-11.549 25.745-25.745v-23.28c0-1.151.934-2.085 2.085-2.085h124.56c53.742 0 97.465 43.723 97.465 97.465v1420.36c0 53.742-43.723 97.465-97.465 97.465zM715 434.875c-51.443 0-93.295 41.852-93.295 93.295v1420.36c0 51.443 41.852 93.295 93.295 93.295h602.42c51.443 0 93.295-41.852 93.295-93.295V528.17c0-51.443-41.852-93.295-93.295-93.295h-122.475v21.195c0 16.495-13.42 29.915-29.915 29.915H867.4c-16.495 0-29.915-13.42-29.915-29.915v-21.195H715z"></path><path fill="#FFF" d="M730.8 569.41h570.82c29.8 0 54.17 24.38 54.17 54.17 0 29.79-24.37 54.17-54.17 54.17H730.8c-29.79 0-54.16-24.38-54.16-54.17 0-29.79 24.37-54.17 54.16-54.17z"></path><path fill="#949899" d="M1301.62 679.835H730.8c-31.014 0-56.245-25.236-56.245-56.255s25.231-56.255 56.245-56.255h570.82c31.019 0 56.255 25.236 56.255 56.255s-25.236 56.255-56.255 56.255zM730.8 571.495c-28.714 0-52.075 23.365-52.075 52.085s23.361 52.085 52.075 52.085h570.82c28.72 0 52.085-23.365 52.085-52.085s-23.365-52.085-52.085-52.085H730.8z"></path><path fill="#949899" d="M1304.84 659.875a2.078 2.078 0 0 1-1.474-.611l-11.092-11.091c-5.844 5.146-13.27 7.957-21.129 7.957-8.558 0-16.602-3.333-22.65-9.386-6.052-6.052-9.385-14.097-9.385-22.653 0-8.555 3.334-16.598 9.386-22.646 6.047-6.052 14.092-9.386 22.649-9.386 8.558 0 16.603 3.333 22.65 9.387 6.051 6.047 9.384 14.089 9.384 22.645 0 7.858-2.811 15.284-7.958 21.132l11.092 11.092a2.085 2.085 0 0 1-1.473 3.56zm-33.695-63.645c-7.444 0-14.44 2.899-19.7 8.164l-.001.001c-5.265 5.26-8.164 12.255-8.164 19.696 0 7.442 2.899 14.44 8.164 19.705 5.261 5.265 12.257 8.164 19.701 8.164 7.441 0 14.436-2.897 19.696-8.159l.005-.005.004-.005c5.262-5.265 8.159-12.261 8.159-19.7 0-7.441-2.899-14.437-8.163-19.696-5.261-5.266-12.257-8.165-19.701-8.165zm51.315 604.175h-612.5a2.086 2.086 0 0 1-2.085-2.085V731.65c0-1.151.934-2.085 2.085-2.085h612.5c1.151 0 2.085.934 2.085 2.085v466.67a2.085 2.085 0 0 1-2.085 2.085zm-610.415-4.17h608.33v-462.5h-608.33v462.5z"></path><path fill="#949899" d="M1247.989 1143.665c-.441 0-.885-.139-1.262-.426l-230.512-175.627-230.512 175.627a2.085 2.085 0 1 1-2.527-3.317l229.599-174.931-229.599-174.932a2.085 2.085 0 1 1 2.527-3.317l230.512 175.627 230.512-175.627a2.085 2.085 0 1 1 2.527 3.317L1019.655 964.99l229.599 174.931a2.085 2.085 0 0 1-1.265 3.744zm-262.219 616.79H709.96a2.086 2.086 0 0 1-2.085-2.085v-275.81c0-1.151.934-2.085 2.085-2.085h275.81c1.151 0 2.085.934 2.085 2.085v275.811a2.086 2.086 0 0 1-2.085 2.084zm-273.725-4.17h271.64v-271.641h-271.64v271.641z"></path><path fill="#949899" d="M952.24 1726.915a2.077 2.077 0 0 1-1.474-.61L847.87 1623.408l-102.896 102.896a2.085 2.085 0 1 1-2.948-2.949l102.896-102.896-102.896-102.896a2.086 2.086 0 0 1 2.948-2.949L847.87 1617.51l102.896-102.896a2.085 2.085 0 1 1 2.948 2.949L850.819 1620.46l102.896 102.896a2.086 2.086 0 0 1-1.475 3.559zm370.22 33.54h-275.8a2.086 2.086 0 0 1-2.085-2.085v-275.81c0-1.151.934-2.085 2.085-2.085h275.8c1.151 0 2.085.934 2.085 2.085v275.811c0 1.15-.934 2.084-2.085 2.084zm-273.715-4.17h271.63v-271.641h-271.63v271.641z"></path><path fill="#949899" d="M1288.93 1726.915a2.077 2.077 0 0 1-1.474-.61l-102.896-102.896-102.896 102.896a2.085 2.085 0 1 1-2.948-2.949l102.896-102.896-102.896-102.896a2.086 2.086 0 0 1 2.948-2.949l102.896 102.896 102.896-102.896a2.085 2.085 0 1 1 2.948 2.949l-102.896 102.896 102.896 102.896a2.086 2.086 0 0 1-1.474 3.559z"></path><path fill="#D0D3D4" d="M709.96 1250.41h393.24v55.2H709.96z"></path><path fill="#EFF3F7" d="M709.96 1331.66h612.5v9.37h-612.5zm0 34.37h612.5v9.37h-612.5zm0 34.37h612.5v9.371h-612.5zm0 34.38h431.79v9.37H709.96zm0 373.949h612.5v9.371h-612.5zm0 34.381h612.5v9.369h-612.5zm0 34.369h431.79v9.371H709.96z"></path><path fill="#FCCAC3" d="M1393.189 1095.37 1224.6 902.7s-2.54-26.68-7.819-32.82c-5.28-6.14-21.45-24.32-26.37-23.55-4.91.77-4.891 7.91-4.891 7.91s-8.42-6.78-11.739-5.09c-3.32 1.699-4.04 8.09-4.04 8.09s-7.62-4.84-12.08-3.38.979 18.34.979 18.34-42.199-52.07-47.97-41.37c-5.77 10.7 52.68 79.19 52.68 79.19s-47.72-3.57-45.72 6.949c2 10.511 58.681 15.33 58.681 15.33 5.239 8.23 9.41 9.95 14.63 11.51 53.59 81.051 137.53 283.211 235.59 251.08 19.579-9.579 9.009-47.109-33.342-99.519z"></path><path fill="#FCCAC3" d="m1517.74 1005.91-124.551 89.46c-57.02 45.24-17.56 111.24 33.011 99.64 6.6-2.14 13.25-5.26 19.97-9.5 83.96-52.979 130.75-79.819 130.75-79.819s36.18-104.541-59.18-99.781z"></path><path fill="#2A1D19" d="M1364.921 1119.555a2.085 2.085 0 0 1-1.238-3.764l98.24-72.359a2.084 2.084 0 1 1 2.473 3.357l-98.24 72.359a2.07 2.07 0 0 1-1.235.407z"></path><path fill="#FCCAC3" d="m1507.87 2566.24 2.89-228.761s34.51-65.319 112.15 7.391l-18.66 223.93c-13.09 33.62-87.13 77.37-96.38-2.56z"></path><path fill="#FD3E42" d="M1353.02 2668.33s-5.699-30.229 26.811-44.49c32.5-14.26 99.52-39.92 112.07-43.909 12.55-4 15.97-13.69 15.97-13.69s23.95 16.54 52.47 16.54 43.91-13.98 43.91-13.98 7.141 7.131 11.7 16.541c4.56 9.42 9.979 68.439 9.979 68.439v24.53h-274.05s-4.2-5.89 1.14-9.981z"></path><path fill="#FFF" d="M1574.23 2599.68c6.039 0 11.51 2.45 15.47 6.41a21.829 21.829 0 0 1 6.409 15.46 21.81 21.81 0 0 1-6.409 15.47c-3.97 3.96-9.44 6.41-15.47 6.41-6.041 0-11.5-2.45-15.461-6.41a21.779 21.779 0 0 1-6.42-15.47c0-6.03 2.45-11.51 6.41-15.46a21.814 21.814 0 0 1 15.471-6.41zm11.98 9.889a16.897 16.897 0 0 0-11.979-4.959c-4.681 0-8.92 1.899-11.99 4.959a16.914 16.914 0 0 0-4.96 11.98c0 4.689 1.899 8.93 4.96 11.99 3.06 3.07 7.3 4.96 11.99 4.96 4.68 0 8.92-1.89 11.989-4.96a16.896 16.896 0 0 0 4.95-11.99c0-4.679-1.891-8.909-4.96-11.98z"></path><path fill="#2A1D19" d="M1369.02 2663.46h245.261c-.001 0-96.131-16.03-245.261 0z"></path><path fill="#FFF" d="m1451.6 2626.18-20.661-23.29 4.611-1.81zm23.37-9.05-20.659-23.29 4.609-1.8zm23.38-9.04-20.661-23.29 4.601-1.81z"></path><path fill="#FCCAC3" d="m1963.061 2555.68-78.621-214.85s9.031-73.32 107.461-32.96l62.17 215.939c-.301 36.071-53.941 103.291-91.01 31.871z"></path><path fill="#FD3E42" d="M1822.811 2668.29s-10.95-28.75 18.529-48.52c29.48-19.78 90.91-56.871 102.561-63.021 11.64-6.14 13.3-16.29 13.3-16.29 28.03 12.74 76.91 9.25 96.87-16.65 0 0 8.27 5.761 14.42 14.221 6.16 8.449 20.38 67.75 20.38 67.75l4.33 24.14-269.75 48.39c-.001 0-5.181-5.06-.64-10.02z"></path><path fill="#FFF" d="M2028.42 2561.66c5.95-1.07 11.76.38 16.36 3.569 4.59 3.2 7.97 8.15 9.04 14.101 1.06 5.94-.38 11.75-3.58 16.351-3.2 4.6-8.15 7.979-14.09 9.039a21.81 21.81 0 0 1-16.351-3.569 21.842 21.842 0 0 1-9.05-14.101 21.808 21.808 0 0 1 3.58-16.35 21.76 21.76 0 0 1 14.091-9.04zm13.54 7.62a16.848 16.848 0 0 0-12.67-2.771 16.93 16.93 0 0 0-10.92 7 16.962 16.962 0 0 0 4.229 23.601c3.561 2.47 8.07 3.59 12.681 2.76s8.45-3.44 10.92-7a16.89 16.89 0 0 0 2.76-12.67c-.82-4.61-3.44-8.44-7-10.92z"></path><path fill="#2A1D19" d="m1837.7 2660.67 241.409-43.31s-97.449 1.209-241.409 43.31z"></path><path fill="#FFF" d="m1912.4 2609.39-24.45-19.27 4.22-2.599zm21.411-13.03-24.452-19.27 4.221-2.6zm21.409-13.02-24.45-19.28 4.22-2.59z"></path><path fill="#353640" d="M1491.04 2039.81c-2.56 255.121-4.67 509.631-4.67 509.631l138.6-10.721 44.38-493.79s1.61-91.26-82.22-91.45c-83.819-.19-96.09 86.33-96.09 86.33zm254.75 17.24c89.81 238.801 179.82 476.881 179.82 476.881l125.36-60.091-137.07-476.45s-31.48-85.68-109.71-55.56c-78.23 30.12-58.4 115.22-58.4 115.22z"></path><path fill="#353640" d="M1521.96 1437.13s-20.24 26.04-23.95 93.08c-1.8 32.38-4.57 271.25-6.97 509.6 2.399 118.59 165.08 142.82 178.31 5.12l47.311-526.45c-4.791-121.251-124.001-156.52-194.701-81.35z"></path><path fill="#2A1D19" d="M1698.652 1720.935a2.08 2.08 0 0 1-1.784-1.004l-81.67-134.609a2.082 2.082 0 0 1 .701-2.863 2.082 2.082 0 0 1 2.863.701l81.67 134.609a2.082 2.082 0 0 1-1.78 3.166zm-87.903 415.231a2.085 2.085 0 0 1-.571-4.091c.126-.036 12.808-3.778 26.105-16.35 12.269-11.599 27.604-33.329 30.99-70.982a2.074 2.074 0 0 1 2.263-1.89 2.085 2.085 0 0 1 1.89 2.263c-3.514 39.086-19.59 61.711-32.456 73.808-14.022 13.184-27.1 17.006-27.649 17.162a2.1 2.1 0 0 1-.572.08z"></path><path fill="#353640" d="M1650.109 1430.32s-14.729 29.51-5.219 95.97c4.59 32.109 48.739 266.88 93.159 501.06 25.63 115.82 189.9 107.66 175.851-29.96l-56.91-525.5c-28.49-117.95-152.301-129.14-206.881-41.57z"></path><path fill="#2A1D19" d="M1704.118 1850.045a2.086 2.086 0 0 1-2.049-1.707l-59.229-321.67a2.087 2.087 0 0 1 4.102-.756l59.229 321.67a2.087 2.087 0 0 1-2.053 2.463zm180.853 208.961a2.086 2.086 0 0 1-.837-3.996c27.955-12.229 26.006-72.603 25.982-73.211a2.086 2.086 0 0 1 2.005-2.163 2.072 2.072 0 0 1 2.163 2.005c.098 2.601 2.052 63.833-28.479 77.189a2.076 2.076 0 0 1-.834.176z"></path><path fill="#BD2022" d="m1421.061 1063.16 64.33 119.8s87.26-62.859 117.579-102.79c30.32-39.93 10.341-130.1-43.63-120.88 0 0-20.699-1.14-138.279 103.87z"></path><path fill="#2A1D19" d="M1485.391 1185.045a2.081 2.081 0 0 1-1.837-1.099l-46.101-85.86a2.084 2.084 0 1 1 3.674-1.972l44.954 83.724 22.938-17.196a2.085 2.085 0 0 1 2.502 3.337l-24.879 18.65a2.096 2.096 0 0 1-1.251.416zM1675.07 697.25s-34.471-13.66-60.48 14.95c-26.01 28.609-14.3 100.14-34.46 148.26s-43.56 63.07-45.521 59.17c-1.949-3.9 117.051 191.18 323.83 10.41 0 0-44.869-27.311-26.66-124.2 18.201-96.89-105.34-163.21-156.709-108.59z"></path><path fill="#FD3E42" d="M1559.34 959.29s-47.5 119.95-48.98 177.63c-1.479 57.68 8.301 303.771 8.301 303.771h201.04c65.46 0 105.08-11.271 108.979-29.15 6.561-78.96 24.961-295.021 34.58-353.9 0 0 1.37-49.56-132.609-98.17-49.111-3.451-128.621-13.621-171.311-.181z"></path><path fill="#2A1D19" d="M1518.659 1442.775a2.085 2.085 0 0 1-2.083-2.021c-.083-2.693-8.308-269.732-7.901-311.195.409-41.792 25.007-104.664 25.256-105.294a2.086 2.086 0 0 1 3.879 1.53c-.245.623-24.563 62.788-24.965 103.806-.405 41.379 7.816 308.334 7.899 311.025a2.085 2.085 0 0 1-2.02 2.148l-.065.001zm290.621-219.504-5.91 139.76c0-.001-11.1-67.291 5.91-139.76zm-154.867-207.736c-12.134 0-21.123-3.568-26.8-10.661-14.373-17.958-1.912-51.597-1.374-53.021a2.086 2.086 0 0 1 3.902 1.473c-.123.327-12.162 32.848.732 48.948 6.244 7.796 17.553 10.597 33.605 8.332a2.085 2.085 0 0 1 .582 4.129c-3.781.534-7.331.8-10.647.8z"></path><path fill="#FCCAC3" d="M1736.18 874.94s-4.88 59.819-5.529 84.529c0 0-45.51 45.19-76.08 40.311-30.561-4.87-15.6-48.11-15.6-48.11l18.529-65.03 78.68-11.7z"></path><path fill="#2A1D19" d="M1736.18 874.94s-1.209 14.84-2.51 32.8c-21.8 32.39-62.14 47.26-92.189 35.12l16.02-56.221 78.679-11.699z"></path><path fill="#FCCAC3" d="M1689.37 715.45s-46.78 9.22-63.72 59.83c-60.2 179.819 75.529 185.399 118.34 111.84 37.449-64.34 39.02-182.72-54.62-171.67z"></path><path fill="#2A1D19" d="M1679.62 702.45s-26.66 133.95 67.63 152.81c94.28 18.86 76.32-31.66 55.91-94.29-20.4-62.62-126.14-79.33-123.54-58.52zm-28.635 175.053c-8.344 0-12.797-2.716-13.121-2.922a2.084 2.084 0 0 1 2.221-3.529c.193.117 12.863 7.505 36.595-5.277a2.085 2.085 0 1 1 1.978 3.671c-11.671 6.287-20.938 8.057-27.673 8.057zm-7.129-25.609c-3.975 0-7.193-1.035-9.603-3.097-4.211-3.603-4.191-8.947-4.188-9.173a2.084 2.084 0 0 1 1.461-1.962c6.149-1.929 14.603-14.861 17.34-19.681a2.085 2.085 0 0 1 3.627 2.059c-1.023 1.803-9.739 16.833-18.102 20.946.252 1.278.906 3.235 2.608 4.673 2.319 1.959 5.982 2.53 10.892 1.697a2.09 2.09 0 0 1 2.404 1.707 2.086 2.086 0 0 1-1.707 2.405c-1.679.283-3.257.426-4.732.426zm-23.106-60.684s16.93-1.76 23.41.74 11.779-5.891-2.801-10.75c-14.579-4.86-27.239 11.78-20.609 10.01z"></path><path fill="#2A1D19" d="M1671.33 797.06s25.359 4.881 34.779 8.461c9.431 3.569 2.281-13.66-14.789-17.891-17.07-4.22-25.68 7.48-19.99 9.43zm-36.11 6.02c2.841.79 4.521 3.76 3.73 6.61l-1.96 7.05c-.79 2.84-3.771 4.52-6.61 3.729-2.84-.79-4.521-3.77-3.729-6.609l1.959-7.051c.79-2.839 3.76-4.519 6.61-3.729zm46.86 10.45h.01c3.189.89 5.08 4.229 4.189 7.43l-2.199 7.93c-.891 3.2-4.24 5.091-7.43 4.2h-.011c-3.189-.89-5.079-4.24-4.189-7.43l2.2-7.93c.89-3.2 4.24-5.09 7.43-4.2z"></path><path fill="#FCCAC3" d="m1796.3 1167.19 97.91 118.01c32.58 33.99 66.16 49.67 86.81 29.3 14.45-39.26 11.891-73.271-10.709-104.1-58.7-80.061-78.601-109.19-78.601-109.19s-106.8-28.82-95.41 65.98z"></path><path fill="#FD3E42" d="m1959.4 1177.04-106.49 76.91s-82.811-84.3-79.86-130.15c2.96-45.85 50.95-123.66 80.94-88.449 29.98 35.209 105.41 141.689 105.41 141.689z"></path><path fill="#2A1D19" d="M1852.911 1256.035a2.08 2.08 0 0 1-1.538-.676c-56.548-61.713-79.806-122.498-80.034-123.104a2.086 2.086 0 0 1 3.903-1.47c.225.595 22.894 59.777 77.956 120.385l104.982-75.821a2.086 2.086 0 0 1 2.441 3.381l-106.49 76.91a2.073 2.073 0 0 1-1.22.395z"></path><path fill="#2A1D19" d="M1864.74 1221.42s42.59-35.27 78.6-55.72c0 0-43.47 5.8-78.6 55.72z"></path><path fill="#FFF" d="m1705.96 1583.28 212.64-48.37c10.851-2.46 21.74 4.39 24.2 15.229l48.37 212.65c2.47 10.84-4.391 21.73-15.23 24.2l-212.64 48.37c-10.85 2.47-21.739-4.391-24.2-15.23l-48.369-212.65c-2.471-10.839 4.378-21.729 15.229-24.199z"></path><path fill="#353640" d="M1758.835 1837.949c-10.33 0-19.485-7.3-21.769-17.357l-48.369-212.649c-1.318-5.786-.293-11.757 2.888-16.812 3.181-5.056 8.122-8.565 13.912-9.884l212.64-48.37a22.329 22.329 0 0 1 4.92-.553c10.336 0 19.494 7.299 21.776 17.354l48.37 212.649c1.317 5.785.291 11.756-2.893 16.813-3.183 5.056-8.122 8.565-13.908 9.884l-212.64 48.37a22.26 22.26 0 0 1-4.927.555zm164.222-301.455c-1.338 0-2.682.151-3.996.449l-212.638 48.37c-4.704 1.07-8.721 3.926-11.309 8.038-2.587 4.112-3.422 8.965-2.351 13.665l48.369 212.65c1.856 8.178 9.301 14.112 17.702 14.112 1.34 0 2.687-.152 4.002-.452l212.64-48.37c4.7-1.07 8.716-3.926 11.305-8.039 2.59-4.113 3.426-8.966 2.355-13.665l-48.37-212.65c-1.855-8.175-9.302-14.108-17.709-14.108z"></path><g fill="#949899"><path d="m1801.92 1789.92 60.7-127.38 102.58 90.24z"></path><path d="M1801.92 1792.005a2.083 2.083 0 0 1-1.882-2.981l60.7-127.38a2.08 2.08 0 0 1 1.463-1.146 2.077 2.077 0 0 1 1.796.477l102.58 90.24a2.085 2.085 0 0 1-.914 3.599l-163.28 37.14c-.154.034-.31.051-.463.051zm61.395-126.076-57.662 121.004 155.107-35.281-97.445-85.723z"></path></g><path fill="#FFF" d="m1758.189 1799.87 49.471-103.82 83.61 73.55z"></path><path fill="#949899" d="M1758.189 1801.955a2.083 2.083 0 0 1-1.882-2.981l49.471-103.82a2.08 2.08 0 0 1 3.259-.668l83.609 73.55a2.085 2.085 0 0 1-.914 3.599l-133.08 30.271a2.277 2.277 0 0 1-.463.049zm50.166-102.517-46.433 97.444 124.907-28.412-78.474-69.032z"></path><path fill="#D0D3D4" d="M1800.96 1629.8c11.86-2.699 23.66 4.73 26.36 16.59 2.699 11.86-4.73 23.66-16.59 26.36-11.86 2.7-23.66-4.729-26.36-16.59s4.73-23.66 16.59-26.36z"></path><path fill="#FCCAC3" d="m1894.21 1285.2-89.771 239.77s-41.899 40.83-47.289 46.99c-5.391 6.16-12.83 47.92-10.051 52.65 2.78 4.729 17.271-43.2 17.271-43.2l13.479-11.601s-6.75 13.41-7.65 15.7c-.899 2.3-4.779 40.49.341 43.49 5.11 2.99 9.439-40.979 9.439-40.979l10.13-11.91s-4.149 12.27-4.31 14.359c-.15 2.09-1.07 38.63 3.62 39.311 4.699.68 8.35-37.76 8.35-37.76l6.051-10.381s-.041 11.08.09 13.28c.129 2.2 5.76 33.03 9.59 32.55 3.83-.489 1.59-33.63 1.59-33.63s45.17-29.88 41.64-50.12v-.01c34.63-65.29 123.32-180.3 131.7-264.72-.391-1.811-7.99-34.94-40.83-37.74-33.76-2.879-53.391 43.951-53.39 43.951z"></path><path fill="#2A1D19" d="M1834.05 1447.965a2.085 2.085 0 0 1-1.952-2.817l60.124-160.584c.555-2.042 7.273-24.712 33.587-33.072a2.086 2.086 0 0 1 1.262 3.975c-24.716 7.852-30.784 30.035-30.843 30.258-.018.069-.04.14-.065.207l-60.16 160.68a2.089 2.089 0 0 1-1.953 1.353z"></path><path fill="#B99FD1" d="M686.82 1998.49h-327c-16.681 0-30.32 13.649-30.32 30.319v327.01c0 16.67 13.64 30.311 30.32 30.311h327c16.68 0 30.319-13.64 30.319-30.311v-327.01c.001-16.669-13.639-30.319-30.319-30.319z"></path><path fill="#353640" d="M706.62 2370.516H379.61c-17.868 0-32.405-14.537-32.405-32.405v-327.01c0-17.863 14.537-32.396 32.405-32.396h327.01c17.862 0 32.395 14.532 32.395 32.396v327.01c0 17.868-14.533 32.405-32.395 32.405zm-327.01-387.641c-15.569 0-28.235 12.662-28.235 28.226v327.01c0 15.569 12.667 28.235 28.235 28.235h327.01c15.563 0 28.225-12.666 28.225-28.235v-327.01c0-15.563-12.662-28.226-28.225-28.226H379.61z"></path><path fill="#EFF3F7" d="m635.03 2314.84-131.12-166.069-119.971 166.069z"></path><path fill="#FFF" d="m702.28 2314.84-106.87-135.35-97.77 135.35zm-119.1-234.441c-18.24 0-33.029 14.791-33.029 33.021 0 18.24 14.789 33.03 33.029 33.03s33.021-14.79 33.021-33.03c-.001-18.23-14.781-33.021-33.021-33.021z"></path><path fill="#949899" d="M453.25 1943.024a2.086 2.086 0 0 1-2.085-2.085v-8.33a2.086 2.086 0 0 1 4.17 0v8.33a2.085 2.085 0 0 1-2.085 2.085zm0-20.83a2.086 2.086 0 0 1-2.085-2.085v-8.33a2.086 2.086 0 0 1 4.17 0v8.33a2.085 2.085 0 0 1-2.085 2.085zm0-20.83a2.086 2.086 0 0 1-2.085-2.085v-8.33a2.086 2.086 0 0 1 4.17 0v8.33a2.085 2.085 0 0 1-2.085 2.085zm0-20.83a2.086 2.086 0 0 1-2.085-2.085v-8.329a2.086 2.086 0 0 1 4.17 0v8.329a2.085 2.085 0 0 1-2.085 2.085zm0-20.829a2.086 2.086 0 0 1-2.085-2.085v-8.33a2.086 2.086 0 0 1 4.17 0v8.33a2.086 2.086 0 0 1-2.085 2.085zm0-20.83a2.086 2.086 0 0 1-2.085-2.085v-8.33a2.086 2.086 0 0 1 4.17 0v8.33a2.086 2.086 0 0 1-2.085 2.085zm0-20.83a2.086 2.086 0 0 1-2.085-2.085v-8.33a2.086 2.086 0 0 1 4.17 0v8.33a2.086 2.086 0 0 1-2.085 2.085zm0-20.83a2.086 2.086 0 0 1-2.085-2.085v-8.33a2.086 2.086 0 0 1 4.17 0v8.33a2.086 2.086 0 0 1-2.085 2.085zm0-20.83a2.086 2.086 0 0 1-2.085-2.085v-8.33a2.086 2.086 0 0 1 4.17 0v8.33a2.086 2.086 0 0 1-2.085 2.085zm0-20.83a2.086 2.086 0 0 1-2.085-2.085v-8.33a2.086 2.086 0 0 1 4.17 0v8.33a2.086 2.086 0 0 1-2.085 2.085zm0-20.83a2.086 2.086 0 0 1-2.085-2.085v-8.33a2.086 2.086 0 0 1 4.17 0v8.33a2.086 2.086 0 0 1-2.085 2.085zm0-20.83a2.086 2.086 0 0 1-2.085-2.085v-8.33a2.086 2.086 0 0 1 4.17 0v8.33a2.086 2.086 0 0 1-2.085 2.085zm0-20.831a2.086 2.086 0 0 1-2.085-2.085v-8.33a2.086 2.086 0 0 1 4.17 0v8.33a2.085 2.085 0 0 1-2.085 2.085zm0-20.83a2.086 2.086 0 0 1-2.085-2.085v-8.33a2.086 2.086 0 0 1 4.17 0v8.33a2.085 2.085 0 0 1-2.085 2.085zm0-20.83a2.086 2.086 0 0 1-2.085-2.085v-8.33a2.086 2.086 0 0 1 4.17 0v8.33a2.085 2.085 0 0 1-2.085 2.085zm0-20.83a2.086 2.086 0 0 1-2.085-2.085v-2.06c0-1.151.934-2.085 2.085-2.085h6.27a2.086 2.086 0 0 1 0 4.17h-4.185a2.086 2.086 0 0 1-2.085 2.06zm131.25-2.059h-8.33a2.086 2.086 0 0 1 0-4.17h8.33a2.086 2.086 0 0 1 0 4.17zm-20.83 0h-8.33a2.086 2.086 0 0 1 0-4.17h8.33a2.086 2.086 0 0 1 0 4.17zm-20.83 0h-8.33a2.086 2.086 0 0 1 0-4.17h8.33a2.086 2.086 0 0 1 0 4.17zm-20.83 0h-8.33a2.086 2.086 0 0 1 0-4.17h8.33a2.086 2.086 0 0 1 0 4.17zm-20.83 0h-8.33a2.086 2.086 0 0 1 0-4.17h8.33a2.086 2.086 0 0 1 0 4.17zm-20.83 0h-8.33a2.086 2.086 0 0 1 0-4.17h8.33a2.086 2.086 0 0 1 0 4.17z"></path><path fill="#353640" d="M442.02 1013.92h225v91.67h-13.55v47.92l-29.01-47.92H442.02z"></path><path fill="#949899" d="M653.47 1155.595c-.716 0-1.399-.37-1.784-1.005l-28.401-46.915H442.02a2.086 2.086 0 0 1-2.085-2.085v-91.67c0-1.151.934-2.085 2.085-2.085h225c1.151 0 2.085.934 2.085 2.085v91.67a2.086 2.086 0 0 1-2.085 2.085h-11.465v45.835a2.084 2.084 0 0 1-2.085 2.085zm-209.366-52.09H624.46c.729 0 1.406.381 1.784 1.005l25.141 41.529v-40.45c0-1.151.934-2.085 2.085-2.085h11.465v-87.5h-220.83v87.501z"></path><path fill="#FFF" d="M644.62 1047.255H464.41a2.086 2.086 0 0 1 0-4.17h180.21a2.086 2.086 0 0 1 0 4.17zm-38.54 30.21H464.41a2.086 2.086 0 0 1 0-4.17h141.67a2.086 2.086 0 0 1 0 4.17z"></path><path fill="#353640" d="M561.63 1198.3h-225v91.67h13.54v47.91l29.019-47.91H561.63z"></path><path fill="#949899" d="M350.17 1339.965a2.084 2.084 0 0 1-2.085-2.085v-45.825H336.63a2.086 2.086 0 0 1-2.085-2.085v-91.67c0-1.151.934-2.085 2.085-2.085h225c1.151 0 2.085.934 2.085 2.085v91.67a2.086 2.086 0 0 1-2.085 2.085H380.364l-28.411 46.905a2.084 2.084 0 0 1-1.783 1.005zm-11.455-52.08h11.455c1.151 0 2.085.934 2.085 2.085v40.443l25.151-41.523a2.083 2.083 0 0 1 1.783-1.005h180.355v-87.5h-220.83v87.5z"></path><path fill="#FFF" d="M539.23 1231.635H359.02a2.086 2.086 0 0 1 0-4.17h180.21a2.086 2.086 0 0 1 0 4.17zm-38.541 30.21H359.02a2.086 2.086 0 0 1 0-4.17h141.67a2.086 2.086 0 0 1-.001 4.17z"></path><path fill="#D0D3D4" d="M522.05 651.2c6.21 0 11.24 5.04 11.24 11.25s-5.03 11.24-11.24 11.24-11.25-5.03-11.25-11.24 5.04-11.25 11.25-11.25zm0 65.48c6.21 0 11.24 5.03 11.24 11.24s-5.03 11.24-11.24 11.24-11.25-5.03-11.25-11.24 5.04-11.24 11.25-11.24zm0 65.47c6.21 0 11.24 5.029 11.24 11.239s-5.03 11.25-11.24 11.25-11.25-5.04-11.25-11.25 5.04-11.239 11.25-11.239zm0 65.47c6.21 0 11.24 5.04 11.24 11.25 0 6.2-5.03 11.24-11.24 11.24s-11.25-5.04-11.25-11.24c0-6.21 5.04-11.25 11.25-11.25zm0 65.48c6.21 0 11.24 5.03 11.24 11.24s-5.03 11.24-11.24 11.24-11.25-5.03-11.25-11.24 5.04-11.24 11.25-11.24zm1913.761 445.27c6.209 0 11.239 5.03 11.239 11.24s-5.03 11.25-11.239 11.25c-6.211 0-11.24-5.04-11.24-11.25s5.029-11.24 11.24-11.24zm0 65.47c6.209 0 11.239 5.04 11.239 11.25 0 6.2-5.03 11.24-11.239 11.24-6.211 0-11.24-5.04-11.24-11.24-.001-6.21 5.029-11.25 11.24-11.25zm0 65.48c6.209 0 11.239 5.029 11.239 11.239s-5.03 11.24-11.239 11.24c-6.211 0-11.24-5.03-11.24-11.24s5.029-11.239 11.24-11.239zm0 65.47c6.209 0 11.239 5.03 11.239 11.24s-5.03 11.24-11.239 11.24c-6.211 0-11.24-5.03-11.24-11.24s5.029-11.24 11.24-11.24zm0 65.47c6.209 0 11.239 5.03 11.239 11.24s-5.03 11.25-11.239 11.25c-6.211 0-11.24-5.04-11.24-11.25s5.029-11.24 11.24-11.24z"></path><path fill="#67CFB0" d="M2549.02 2375.29s83.051 24.77 112.92 102.72c29.86 77.95-24.05 115.11-75.039 44.44-51-70.67-63.75-69.94-71.4-61.2-7.65 8.75-3.27 31.69-35.689.729-32.42-30.959-68.271 17.541-108.45 8.41 0 0 22.479-87.09 83.68-117.689 61.188-30.59 132.218 4.37 93.978 22.59z"></path><path fill="#9FE6D1" d="M2335.52 2474.62s-38.939-30.13-84.109-47.61c-45.17-17.489-10.93-42.26-10.93-42.26s-37.881-32.78-85.23-48.81c-47.36-16.03-65.57-65.57 16.02-67.75 81.601-2.19 121.66 93.25 132.591 92.52 10.928-.731 46.958-12.12 31.658 113.91z"></path><path fill="#353640" d="M2359.602 2504.136a2.085 2.085 0 0 1-2.026-2.585c.205-.834 5.175-20.689 17.76-43.581 11.668-21.222 32.326-48.955 64.486-60.56 39.785-14.356 87.483-1.284 141.758 38.854a2.086 2.086 0 0 1-2.478 3.354c-53.084-39.258-99.47-52.141-137.864-38.284-59.335 21.409-79.416 100.42-79.612 101.216a2.09 2.09 0 0 1-2.024 1.586zm12.389-91.431a2.085 2.085 0 0 1-2.008-1.521c-16.662-59.268-6.6-126.388-1.499-152.494 3.599-18.426 12.798-23.657 23.449-29.715 8.414-4.784 17.951-10.207 27.15-23.53 16.467-23.847 63.854-73.087 105.227-73.087 12.262 0 23.021 4.384 31.978 13.031 8.417 8.126 12.533 16.48 12.586 25.542.112 19.304-18.518 37.712-38.24 57.201-14.154 13.985-28.79 28.447-36.591 43.563-6.47 12.537-10.729 22.996-14.486 32.224-9.438 23.174-15.134 37.161-42.868 45.32-35.862 10.539-62.578 61.816-62.844 62.333a2.087 2.087 0 0 1-1.854 1.133zm152.32-276.177c-39.333 0-86.374 48.954-101.795 71.286-9.741 14.107-19.718 19.781-28.521 24.786-10.559 6.004-18.187 10.342-21.419 26.889-4.899 25.082-14.436 88.432.087 145.579 7.591-13.228 31.399-50.587 62.849-59.828 25.807-7.593 30.611-19.39 40.183-42.893 3.791-9.31 8.088-19.86 14.644-32.563 8.104-15.704 22.979-30.403 37.364-44.617 19.081-18.854 37.104-36.663 37.002-54.212-.045-7.879-3.746-15.26-11.313-22.565-8.153-7.871-17.937-11.862-29.081-11.862z"></path><path fill="#353640" d="m2359.631 2515.795-.075-.001a2.087 2.087 0 0 1-2.01-2.158c1.165-32.716 5.337-67.511 12.398-103.418 17.209-87.551 57.401-149.88 88.089-186.751 33.28-39.984 62.952-59.551 63.248-59.743a2.085 2.085 0 0 1 2.279 3.492c-.292.19-29.538 19.497-62.43 59.051-30.335 36.479-70.069 98.144-87.094 184.756-7.02 35.691-11.165 70.266-12.322 102.762a2.085 2.085 0 0 1-2.083 2.01zm-16.434-7.3a2.085 2.085 0 0 1-2.063-1.809c-.051-.38-5.37-38.535-29.724-84.316-22.442-42.19-66.125-99.695-146.777-134.053a2.084 2.084 0 1 1 1.634-3.836c36.134 15.393 68.03 36.619 94.804 63.091 21.419 21.177 39.621 45.734 54.102 72.99 24.659 46.418 30.043 85.186 30.094 85.572a2.085 2.085 0 0 1-2.07 2.361z"></path><path fill="#949899" d="M2471.26 2493.28h-223.31c-47.06 136.38 43.86 167.08 43.86 167.08v17.949h135.58v-17.949c.001 0 90.921-30.7 43.87-167.08z"></path><path fill="#D0D3D4" d="M2487.21 2484.51H2232v35.091h255.21z"></path><path fill="#2A1D19" d="M2487.21 2521.686H2232a2.086 2.086 0 0 1 0-4.17h255.21a2.086 2.086 0 0 1 0 4.17z"></path><path fill="#353640" d="M2276.85 1732.1h314.58v117.71h-314.58z"></path><path fill="#FFF" d="m2415.6 1818.55-49.1-21.33v-11.82l49.1-21.25v13.899l-34.25 13.101 34.25 13.6v13.8zm4.5 9.4 17.801-74h10.3l-17.899 74H2420.1zm32.58-9.3v-13.801l34.25-13.51-34.25-13.39v-13.7l49.101 21.271v11.729l-49.101 21.401z"></path><path fill="#353640" d="M2118.51 1871.68h392.71v217.71h-392.71z"></path><path fill="#9FE6D1" d="M2151.061 1976.54h61.979v7.99h-61.979zm89.329 0h75.78v7.99h-75.78z"></path><path fill="#FFE072" d="M2336.22 1976.54h122.14v7.99h-122.14z"></path><path fill="#FD3E42" d="M2240.39 2013.57h45.57v7.98h-45.57zm59.63 0h178.65v7.98h-178.65z"></path><path fill="#9FE6D1" d="M2151.061 1902.5h61.979v7.979h-61.979z"></path><path fill="#FFE072" d="M2240.39 1902.5h75.78v7.979h-75.78z"></path><path fill="#9FE6D1" d="M2336.22 1902.5H2412v7.979h-75.78zm94.79 0h47.66v7.979h-47.66z"></path><path fill="#FFE072" d="M2240.39 1939.521h32.549v7.989h-32.549z"></path><path fill="#FD3E42" d="M2290.83 1939.521h187.84v7.989h-187.84z"></path><path fill="#9FE6D1" d="M2240.39 2050.59h75.78v7.98h-75.78z"></path><path fill="#FD3E42" d="M2336.22 2050.59H2412v7.98h-75.78z"></path><path fill="#9FE6D1" d="M2431.01 2050.59h47.66v7.98h-47.66z"></path><path fill="#353640" d="M2730.16 2680.395H269.84a2.086 2.086 0 0 1 0-4.17h2460.32a2.086 2.086 0 0 1 0 4.17z"></path></svg>