<svg xmlns="http://www.w3.org/2000/svg" width="3000" height="3000" id="male-designer-creating-a-mobile-ui-design"><path fill="#FFF" d="M0 0h3000v3000H0z"></path><path fill="#353640" d="M1659.15 1319.445h-25.42a2.086 2.086 0 0 1-2.085-2.085v-13.181a.516.516 0 0 0-.441-.503 1.916 1.916 0 0 1-.184-.033 68.26 68.26 0 0 1-11.152-3.559 68.447 68.447 0 0 1-10.626-5.525.542.542 0 0 0-.638.074l-9.331 9.321a2.086 2.086 0 0 1-2.948-.001l-17.97-17.971a2.086 2.086 0 0 1 0-2.948l9.32-9.329a.53.53 0 0 0 .058-.668 68.383 68.383 0 0 1-5.511-10.595 68.54 68.54 0 0 1-3.598-11.373.54.54 0 0 0-.512-.406h-13.163a2.086 2.086 0 0 1-2.085-2.085v-25.41c0-1.151.934-2.085 2.085-2.085h13.18a.518.518 0 0 0 .504-.443c.008-.061.02-.122.032-.181a67.706 67.706 0 0 1 3.561-11.165 69.589 69.589 0 0 1 5.523-10.614.522.522 0 0 0-.093-.654 1.837 1.837 0 0 1-.112-.104l-9.199-9.2a2.086 2.086 0 0 1 0-2.948l17.99-17.99c.783-.782 2.166-.782 2.949 0l9.319 9.32c.221.225.398.232.651.075a67.71 67.71 0 0 1 10.603-5.509 68.752 68.752 0 0 1 11.364-3.605.54.54 0 0 0 .423-.515v-13.171c0-1.151.934-2.085 2.085-2.085h25.42c1.151 0 2.085.934 2.085 2.085v13.19c0 .254.186.47.432.503.062.008.122.019.183.033a69.509 69.509 0 0 1 11.165 3.557 70.112 70.112 0 0 1 10.613 5.527.506.506 0 0 0 .647-.084c.035-.042.072-.082.111-.121l9.21-9.2a2.086 2.086 0 0 1 2.948.001l17.98 17.98a2.084 2.084 0 0 1 0 2.949l-9.33 9.329a.524.524 0 0 0-.063.65 69.886 69.886 0 0 1 5.524 10.607 69.546 69.546 0 0 1 3.599 11.372c.06.274.302.41.513.412h13.162c1.151 0 2.085.934 2.085 2.085v25.41a2.086 2.086 0 0 1-2.085 2.085h-13.18a.518.518 0 0 0-.514.441c-.008.062-.02.123-.033.184a69.182 69.182 0 0 1-3.546 11.156 69.756 69.756 0 0 1-5.527 10.631.52.52 0 0 0 .092.663c.035.03.068.062.102.094l9.201 9.19a2.09 2.09 0 0 1 .001 2.95l-17.98 17.979a2.086 2.086 0 0 1-2.949 0l-9.32-9.319c-.218-.221-.413-.23-.659-.063a70.26 70.26 0 0 1-10.605 5.514l-.062.029a68.533 68.533 0 0 1-11.309 3.571.525.525 0 0 0-.405.511v13.164a2.085 2.085 0 0 1-2.085 2.086zm-23.335-4.17h21.25v-11.096c.019-2.217 1.528-4.087 3.672-4.564a64.206 64.206 0 0 0 10.549-3.324l.055-.026a66.317 66.317 0 0 0 9.985-5.178c.719-.492 1.633-.773 2.582-.773 1.254 0 2.432.487 3.316 1.372l7.846 7.845 15.031-15.03-7.684-7.675a4.655 4.655 0 0 1-.807-5.986 64.937 64.937 0 0 0 8.507-20.393 4.7 4.7 0 0 1 4.631-3.952h11.095v-21.24h-11.095c-2.199-.018-4.113-1.569-4.567-3.688a65.414 65.414 0 0 0-3.379-10.67 65.659 65.659 0 0 0-5.156-9.913c-1.228-1.795-.992-4.298.599-5.889l7.856-7.855-15.033-15.033-7.686 7.678a4.678 4.678 0 0 1-5.992.825 65.802 65.802 0 0 0-9.972-5.195 65.48 65.48 0 0 0-10.412-3.324 4.689 4.689 0 0 1-3.942-4.621v-11.105h-21.25v11.105a4.689 4.689 0 0 1-3.682 4.565 64.723 64.723 0 0 0-10.681 3.39 63.668 63.668 0 0 0-9.975 5.185c-1.853 1.155-4.331.854-5.831-.663l-7.837-7.838-15.042 15.042 7.68 7.68c1.675 1.503 2.034 4.057.827 5.979a65.418 65.418 0 0 0-5.199 9.991 63.518 63.518 0 0 0-3.325 10.404 4.695 4.695 0 0 1-4.621 3.952h-11.095v21.24h11.095a4.682 4.682 0 0 1 4.564 3.668 64.489 64.489 0 0 0 3.382 10.689 63.984 63.984 0 0 0 5.145 9.9c1.227 1.81.99 4.313-.595 5.901l-7.848 7.855 15.022 15.023 7.855-7.848c1.493-1.493 4.015-1.782 5.813-.65a64.358 64.358 0 0 0 9.993 5.196 64.014 64.014 0 0 0 10.401 3.328 4.693 4.693 0 0 1 3.951 4.62v11.096zm10.624-30.961c-12.938 0-25.104-5.04-34.254-14.191-9.15-9.15-14.19-21.311-14.19-34.244 0-12.932 5.043-25.097 14.2-34.254 9.156-9.145 21.317-14.18 34.244-14.18 12.929 0 25.09 5.036 34.244 14.179 9.146 9.157 14.181 21.322 14.181 34.255 0 12.938-5.036 25.1-14.18 34.244a2.176 2.176 0 0 1-.099.093l-.113.099c-9.117 9.029-21.201 13.999-34.033 13.999zm0-92.699c-11.813 0-22.929 4.603-31.296 12.959-8.369 8.369-12.979 19.487-12.979 31.305s4.606 22.933 12.97 31.295c8.362 8.364 19.479 12.97 31.305 12.97 11.745 0 22.805-4.558 31.142-12.834.03-.03.062-.059.093-.087l.109-.095c8.326-8.351 12.911-19.446 12.911-31.248 0-11.821-4.603-22.939-12.96-31.307-8.364-8.355-19.479-12.958-31.295-12.958z"></path><path fill="#FFE072" d="M1798.92 1369.39a116.83 116.83 0 0 1 37.25 15.44l18.78-18.78 36.42 36.42-18.78 18.771a116.772 116.772 0 0 1 15.45 37.26h26.54v12.87h-68.97c-6.091-34.49-36.21-60.68-72.44-60.68-36.24 0-66.35 26.189-72.439 60.68h-68.971v-12.87h26.53c3-13.42 8.3-25.99 15.46-37.25l-18.779-18.78 36.41-36.42 18.779 18.78a117.208 117.208 0 0 1 37.26-15.44v-26.55h51.5v26.549zm115.66 127.73V1510h-26.54c-2.99 13.43-8.29 26-15.45 37.26l18.771 18.771-36.41 36.42-18.771-18.771c-11.27 7.15-23.83 12.45-37.26 15.44v26.54h-51.5v-26.54c-13.43-2.99-25.99-8.29-37.26-15.44l-18.77 18.771-36.421-36.42 18.78-18.771a117.019 117.019 0 0 1-15.46-37.26h-26.53v-12.88h68.971c6.09 34.49 36.199 60.7 72.439 60.7s66.35-26.21 72.439-60.7h68.972z"></path><path fill="#949899" d="M1783.47 1619.654h-44.3a2.086 2.086 0 0 1-2.085-2.085v-22.97c0-1.218-.909-2.26-2.115-2.423a2.714 2.714 0 0 1-.18-.033 119.15 119.15 0 0 1-19.177-6.106c-6.244-2.58-12.398-5.778-18.289-9.506-.952-.606-2.262-.444-3.039.332l-16.25 16.251a2.085 2.085 0 0 1-2.948 0l-31.341-31.33c-.392-.391-.611-.922-.611-1.475s.22-1.083.61-1.475l16.261-16.26a2.438 2.438 0 0 0 .286-3.104 119.423 119.423 0 0 1-9.459-18.204 118.155 118.155 0 0 1-6.198-19.564c-.243-1.109-1.249-1.917-2.395-1.928h-22.95a2.086 2.086 0 0 1-2.085-2.085v-44.291c0-1.151.934-2.085 2.085-2.085h22.97a2.452 2.452 0 0 0 2.424-2.114c.009-.061.02-.122.033-.182a118.527 118.527 0 0 1 6.107-19.188c2.629-6.33 5.83-12.48 9.516-18.279.638-1.011.443-2.367-.456-3.146a1.719 1.719 0 0 1-.108-.102l-16.03-16.04a2.086 2.086 0 0 1 0-2.948l31.351-31.35a2.085 2.085 0 0 1 2.95 0l16.24 16.25c.79.796 2.109.936 3.045.349a118.905 118.905 0 0 1 18.253-9.492 119.244 119.244 0 0 1 19.57-6.208 2.45 2.45 0 0 0 1.932-2.395v-22.961c0-1.151.934-2.085 2.085-2.085h44.3c1.151 0 2.085.934 2.085 2.085v22.98c0 1.218.905 2.26 2.106 2.423.061.008.121.019.181.033a119.832 119.832 0 0 1 19.205 6.117 119.607 119.607 0 0 1 18.263 9.508c.982.619 2.398.416 3.155-.458a1.72 1.72 0 0 1 .101-.108l16.04-16.039a2.086 2.086 0 0 1 2.949 0l31.34 31.34a2.084 2.084 0 0 1-.001 2.949l-16.26 16.25a2.458 2.458 0 0 0-.291 3.11 119.039 119.039 0 0 1 9.474 18.218 118.618 118.618 0 0 1 6.188 19.554 2.449 2.449 0 0 0 2.395 1.928h22.95c1.151 0 2.085.934 2.085 2.085v44.291a2.086 2.086 0 0 1-2.085 2.085h-22.97a2.474 2.474 0 0 0-2.436 2.124 2.333 2.333 0 0 1-.03.167 116.853 116.853 0 0 1-6.108 19.203 118.996 118.996 0 0 1-9.506 18.278 2.441 2.441 0 0 0 .468 3.158c.037.032.072.065.106.1l16.029 16.02c.392.391.611.921.611 1.475 0 .553-.22 1.083-.61 1.475l-31.351 31.34a2.085 2.085 0 0 1-2.948 0l-16.25-16.25c-.814-.818-2.17-.938-3.104-.297a121.127 121.127 0 0 1-18.212 9.469l-.163.074a119.34 119.34 0 0 1-19.392 6.114 2.452 2.452 0 0 0-1.931 2.396v22.949a2.085 2.085 0 0 1-2.085 2.086zm-42.215-4.17h40.13V1594.6c.031-3.144 2.17-5.786 5.201-6.447a115.294 115.294 0 0 0 18.641-5.87l.156-.072a117.04 117.04 0 0 0 17.574-9.123c1.033-.712 2.325-1.112 3.669-1.112 1.773 0 3.437.69 4.683 1.945l14.771 14.771 28.4-28.392-14.507-14.497a6.589 6.589 0 0 1-1.197-8.484 114.884 114.884 0 0 0 9.177-17.646 112.669 112.669 0 0 0 5.875-18.443c.496-3.213 3.297-5.624 6.552-5.624h20.885v-40.121h-20.885c-3.144-.029-5.786-2.168-6.447-5.201a114.681 114.681 0 0 0-15.074-36.377c-1.747-2.559-1.417-6.094.822-8.346l14.789-14.78-28.391-28.391-14.518 14.517a6.613 6.613 0 0 1-4.947 2.21 6.631 6.631 0 0 1-3.537-1.022 115.444 115.444 0 0 0-17.629-9.179 115.587 115.587 0 0 0-18.451-5.885c-3.207-.487-5.613-3.281-5.613-6.541v-20.896h-40.13v20.896c-.029 3.143-2.168 5.786-5.201 6.447a114.864 114.864 0 0 0-18.874 5.988 114.772 114.772 0 0 0-17.622 9.165 6.624 6.624 0 0 1-3.533 1.017 6.568 6.568 0 0 1-4.693-1.947l-14.761-14.771-28.402 28.401 14.509 14.518c2.39 2.125 2.902 5.753 1.187 8.474a115.762 115.762 0 0 0-9.188 17.647 114.368 114.368 0 0 0-5.874 18.429c-.484 3.214-3.279 5.625-6.542 5.625h-20.885v40.121h20.885c3.14.029 5.783 2.167 6.447 5.198a113.957 113.957 0 0 0 5.979 18.866 115.153 115.153 0 0 0 9.086 17.505c1.761 2.558 1.436 6.098-.816 8.35l-14.786 14.785 28.392 28.382 14.775-14.776a6.67 6.67 0 0 1 4.684-1.937c1.256 0 2.479.356 3.54 1.032 5.684 3.597 11.622 6.684 17.646 9.173a114.915 114.915 0 0 0 18.424 5.875c3.214.485 5.625 3.28 5.625 6.541v20.886zm20.065-57.069c-22.14 0-42.953-8.619-58.605-24.271-15.651-15.652-24.271-36.462-24.271-58.595 0-22.131 8.627-42.94 24.292-58.595 15.662-15.65 36.467-24.27 58.584-24.27 22.134 0 42.942 8.619 58.594 24.27s24.271 36.46 24.271 58.594-8.619 42.943-24.271 58.595l-.326.304c-15.575 15.44-36.286 23.968-58.268 23.968zm0-161.56c-21.004 0-40.763 8.186-55.637 23.049-14.876 14.866-23.069 34.628-23.069 55.645 0 21.019 8.186 40.781 23.05 55.646s34.63 23.05 55.656 23.05c20.875 0 40.543-8.1 55.382-22.806l.319-.298c14.808-14.81 22.993-34.572 22.993-55.592s-8.186-40.782-23.05-55.646c-14.861-14.862-34.623-23.048-55.644-23.048z"></path><path fill="#EFF3F7" d="M1960.24 643.35h124.729v23.301c0 15.329 12.54 27.869 27.87 27.869h298.03c15.33 0 27.86-12.54 27.86-27.869V643.35h124.74c52.529 0 95.51 42.971 95.51 95.511v1422.26c0 52.53-42.98 95.5-95.51 95.5h-603.23c-52.53 0-95.51-42.97-95.51-95.5V738.86c.001-52.54 42.981-95.509 95.511-95.51z"></path><path fill="#353640" d="M2563.471 2258.705h-603.23a2.086 2.086 0 0 1 0-4.17h603.23c51.515 0 93.425-41.906 93.425-93.415V738.86c0-51.515-41.91-93.426-93.425-93.426h-122.655v21.216c0 16.517-13.434 29.954-29.945 29.954h-298.03c-16.518 0-29.955-13.438-29.955-29.954v-21.216H1960.24c-51.515 0-93.425 41.911-93.425 93.426v753.27a2.086 2.086 0 0 1-4.17 0V738.86c0-53.814 43.781-97.596 97.595-97.596h124.729c1.151 0 2.085.934 2.085 2.085v23.301c0 14.217 11.567 25.784 25.785 25.784h298.03c14.213 0 25.775-11.567 25.775-25.784v-23.3c0-1.151.934-2.085 2.085-2.085h124.74c53.813 0 97.595 43.781 97.595 97.596v1422.26c.001 53.808-43.78 97.584-97.593 97.584z"></path><path fill="#353640" d="M2574.16 1942.175h-624.609c-8.439 0-15.306-6.87-15.306-15.314v-197.92c0-8.439 6.866-15.306 15.306-15.306h624.609c8.445 0 15.315 6.866 15.315 15.306v197.92c.001 8.444-6.87 15.314-15.315 15.314zm-624.609-224.37c-6.141 0-11.136 4.995-11.136 11.136v197.92c0 6.146 4.995 11.145 11.136 11.145h624.609c6.146 0 11.146-4.999 11.146-11.145v-197.92c0-6.141-5-11.136-11.146-11.136h-624.609.01-.01zm631.229 381.98h-637.841c-4.794 0-8.694-3.9-8.694-8.695v-98.96c0-4.8 3.9-8.705 8.694-8.705h637.841c4.795 0 8.695 3.905 8.695 8.705v98.96c.001 4.795-3.9 8.695-8.695 8.695zm-637.841-112.19a4.534 4.534 0 0 0-4.524 4.535v98.96a4.53 4.53 0 0 0 4.524 4.525h637.841a4.53 4.53 0 0 0 4.525-4.525v-98.96a4.535 4.535 0 0 0-4.525-4.535h-637.841zm236.561-359.361h-205.59c-21.871 0-39.665-17.793-39.665-39.664v-205.591c0-21.871 17.794-39.664 39.665-39.664h205.59c21.871 0 39.665 17.793 39.665 39.664v205.591c0 21.871-17.794 39.664-39.665 39.664zm-205.59-280.749c-19.572 0-35.495 15.923-35.495 35.494v205.591c0 19.571 15.923 35.494 35.495 35.494h205.59c19.572 0 35.495-15.923 35.495-35.494v-205.591c0-19.571-15.923-35.494-35.495-35.494h-205.59zm282.43 51.435a2.601 2.601 0 0 1 0-5.201h316.59c1.44 0 2.601 1.17 2.601 2.601 0 1.439-1.16 2.6-2.601 2.6h-316.59zm0 34.41a2.601 2.601 0 0 1 0-5.201h293.19c1.439 0 2.6 1.17 2.6 2.6a2.595 2.595 0 0 1-2.6 2.601h-293.19zm0 39.92a2.601 2.601 0 0 1 0-5.201h273.92c1.44 0 2.601 1.17 2.601 2.601 0 1.439-1.16 2.6-2.601 2.6h-273.92zm0 39.92a2.601 2.601 0 0 1 0-5.201h246.391c1.43 0 2.6 1.17 2.6 2.601 0 1.439-1.17 2.6-2.6 2.6H2256.34zm0 39.92a2.601 2.601 0 0 1 0-5.201h295.94c1.439 0 2.6 1.17 2.6 2.601 0 1.439-1.159 2.6-2.6 2.6h-295.94zm-76.84-285.526h-205.59c-21.871 0-39.665-17.793-39.665-39.664v-205.59c0-21.871 17.794-39.664 39.665-39.664l205.59-.001c21.871 0 39.665 17.793 39.665 39.665v205.59c0 21.871-17.794 39.664-39.665 39.664zm-205.59-280.75c-19.572.001-35.495 15.924-35.495 35.495V1227.9c0 19.571 15.923 35.494 35.495 35.494h205.59c19.572 0 35.495-15.923 35.495-35.494v-205.59c0-19.572-15.923-35.495-35.495-35.495h-205.59zm568.05-97.739h-560.21c-26.194 0-47.505-21.311-47.505-47.505 0-26.2 21.311-47.516 47.505-47.516h560.21c26.199 0 47.515 21.315 47.515 47.516 0 26.195-21.316 47.505-47.515 47.505zm-560.21-90.85c-23.895 0-43.335 19.445-43.335 43.346 0 23.895 19.44 43.335 43.335 43.335h560.21c23.9 0 43.345-19.44 43.345-43.335 0-23.901-19.444-43.346-43.345-43.346h-560.21zm274.59 240.025a2.601 2.601 0 0 1 0-5.201h316.59c1.44 0 2.601 1.17 2.601 2.601 0 1.439-1.16 2.6-2.601 2.6h-316.59zm0 34.42c-1.439 0-2.6-1.17-2.6-2.6 0-1.44 1.16-2.61 2.6-2.61h293.19c1.439 0 2.6 1.17 2.6 2.61a2.6 2.6 0 0 1-2.6 2.6h-293.19zm0 39.92c-1.439 0-2.6-1.17-2.6-2.61 0-1.43 1.16-2.6 2.6-2.6h273.92c1.44 0 2.601 1.17 2.601 2.6 0 1.44-1.16 2.61-2.601 2.61h-273.92zm0 39.92c-1.439 0-2.6-1.17-2.6-2.609a2.601 2.601 0 0 1 2.6-2.601h246.391c1.43 0 2.6 1.17 2.6 2.601a2.61 2.61 0 0 1-2.6 2.609H2256.34zm0 39.91a2.601 2.601 0 0 1 0-5.201h295.94c1.439 0 2.6 1.17 2.6 2.601 0 1.439-1.159 2.6-2.6 2.6h-295.94z"></path><path fill="#353640" d="M2515.39 815.39c7.22 0 13.771 2.94 18.5 7.67a25.983 25.983 0 0 1 7.66 18.5c.01 7.24-2.92 13.78-7.649 18.521a26.1 26.1 0 0 1-18.511 7.65 26.06 26.06 0 0 1-18.51-7.65 26.108 26.108 0 0 1-7.66-18.51c0-7.23 2.931-13.79 7.66-18.511a26.069 26.069 0 0 1 18.51-7.67zm0 5.2c-5.79 0-11.04 2.351-14.83 6.15-3.8 3.79-6.159 9.05-6.159 14.83s2.359 11.03 6.159 14.83a20.92 20.92 0 0 0 14.83 6.14c5.78.01 11.03-2.34 14.83-6.14a20.92 20.92 0 0 0 6.14-14.83 20.833 20.833 0 0 0-6.14-14.83 20.871 20.871 0 0 0-14.83-6.15z"></path><path fill="#353640" d="M2530.22 860.08a2.613 2.613 0 0 1 0-3.68 2.595 2.595 0 0 1 3.681 0l11.039 11.04a2.6 2.6 0 0 1-3.68 3.67l-11.04-11.03z"></path><path fill="#D0D3D4" d="M514.52 1457.03c0 5.74-4.649 10.39-10.39 10.39s-10.39-4.649-10.39-10.39 4.649-10.391 10.39-10.391 10.39 4.651 10.39 10.391zm-49.35 0c0 5.74-4.65 10.39-10.39 10.39s-10.391-4.649-10.391-10.39 4.65-10.391 10.391-10.391c5.74.001 10.39 4.651 10.39 10.391zm-49.35 0c0 5.74-4.65 10.39-10.391 10.39s-10.39-4.649-10.39-10.39 4.649-10.391 10.39-10.391 10.391 4.651 10.391 10.391zm98.7 59.09c0 5.74-4.649 10.39-10.39 10.39s-10.39-4.649-10.39-10.39c0-5.73 4.649-10.391 10.39-10.391s10.39 4.661 10.39 10.391zm-49.35 0c0 5.74-4.65 10.39-10.39 10.39s-10.391-4.649-10.391-10.39c0-5.73 4.65-10.391 10.391-10.391 5.74 0 10.39 4.661 10.39 10.391zm-49.35 0c0 5.74-4.65 10.39-10.391 10.39s-10.39-4.649-10.39-10.39c0-5.73 4.649-10.391 10.39-10.391s10.391 4.661 10.391 10.391zm98.7 59.1c0 5.73-4.649 10.391-10.39 10.391s-10.39-4.66-10.39-10.391c0-5.74 4.649-10.399 10.39-10.399s10.39 4.658 10.39 10.399zm-49.35 0c0 5.73-4.65 10.391-10.39 10.391s-10.391-4.66-10.391-10.391c0-5.74 4.65-10.399 10.391-10.399 5.74-.001 10.39 4.658 10.39 10.399zm-49.35 0c0 5.73-4.65 10.391-10.391 10.391s-10.39-4.66-10.39-10.391c0-5.74 4.649-10.399 10.39-10.399s10.391 4.658 10.391 10.399zm98.7 59.09c0 5.73-4.649 10.391-10.39 10.391s-10.39-4.66-10.39-10.391c0-5.739 4.649-10.39 10.39-10.39s10.39 4.65 10.39 10.39zm-49.35 0c0 5.73-4.65 10.391-10.39 10.391s-10.391-4.66-10.391-10.391c0-5.739 4.65-10.39 10.391-10.39 5.74 0 10.39 4.65 10.39 10.39zm-49.35 0c0 5.73-4.65 10.391-10.391 10.391s-10.39-4.66-10.39-10.391c0-5.739 4.649-10.39 10.39-10.39s10.391 4.65 10.391 10.39zm98.7 59.09c0 5.729-4.649 10.39-10.39 10.39s-10.39-4.66-10.39-10.39c0-5.74 4.649-10.391 10.39-10.391s10.39 4.651 10.39 10.391zm-49.35 0c0 5.729-4.65 10.39-10.39 10.39s-10.391-4.66-10.391-10.39c0-5.74 4.65-10.391 10.391-10.391 5.74.001 10.39 4.651 10.39 10.391zm-49.35 0c0 5.729-4.65 10.39-10.391 10.39s-10.39-4.66-10.39-10.39c0-5.74 4.649-10.391 10.39-10.391s10.391 4.651 10.391 10.391zm98.7 59.09c0 5.729-4.649 10.39-10.39 10.39s-10.39-4.66-10.39-10.39c0-5.74 4.649-10.391 10.39-10.391s10.39 4.651 10.39 10.391zm-49.35 0c0 5.729-4.65 10.39-10.39 10.39s-10.391-4.66-10.391-10.39c0-5.74 4.65-10.391 10.391-10.391 5.74.001 10.39 4.651 10.39 10.391zm-49.35 0c0 5.729-4.65 10.39-10.391 10.39s-10.39-4.66-10.39-10.39c0-5.74 4.649-10.391 10.39-10.391s10.391 4.651 10.391 10.391z"></path><path fill="#949899" d="M652.78 1048.44c0 1.31.96 2.359 2.149 2.56a2.597 2.597 0 0 0 3.051-2.56v-10.4c0-1.311-.961-2.37-2.16-2.57-1.63-.27-3.04.99-3.04 2.57v10.4zm1140.12 49.4c1.3 0 2.359-.96 2.56-2.16a2.6 2.6 0 0 0-2.56-3.05h-10.41c-1.301 0-2.36.96-2.561 2.16-.27 1.64.98 3.05 2.561 3.05h10.41zm-26.02 0c1.31 0 2.37-.96 2.57-2.16.27-1.64-.99-3.05-2.57-3.05h-10.399c-1.311 0-2.36.96-2.561 2.16-.28 1.64.98 3.05 2.561 3.05h10.399zm-26.01 0c1.31 0 2.36-.96 2.56-2.16a2.596 2.596 0 0 0-2.56-3.05h-10.4a2.605 2.605 0 1 0 0 5.21h10.4zm-26.011 0c1.301 0 2.36-.96 2.561-2.16.27-1.64-.98-3.05-2.561-3.05h-10.409a2.606 2.606 0 0 0 0 5.21h10.409zm-26.009 0a2.605 2.605 0 0 0 0-5.21h-10.41c-1.31 0-2.359.96-2.56 2.16a2.6 2.6 0 0 0 2.56 3.05h10.41zm-26.02 0c1.311 0 2.37-.96 2.561-2.16a2.597 2.597 0 0 0-2.561-3.05h-10.4c-1.31 0-2.359.96-2.56 2.16a2.596 2.596 0 0 0 2.56 3.05h10.4zm-26.01 0c1.31 0 2.359-.96 2.56-2.16a2.6 2.6 0 0 0-2.56-3.05h-10.41a2.605 2.605 0 0 0 0 5.21h10.41zm-26.009 0a2.605 2.605 0 0 0 0-5.21h-10.41c-1.301 0-2.36.96-2.561 2.16-.27 1.64.98 3.05 2.561 3.05h10.41zm-26.021 0a2.605 2.605 0 1 0 0-5.21h-10.4c-1.31 0-2.36.96-2.56 2.16a2.596 2.596 0 0 0 2.56 3.05h10.4zm-26.011 0c1.311 0 2.36-.96 2.561-2.16.28-1.64-.98-3.05-2.561-3.05-3.43 0-6.859.01-10.289-.13-3.7 0-3.381 5.2-.221 5.2 3.521.13 7.001.14 10.51.14zm-26.299-1.44c3.189.54 4.27-4.561.699-5.15-3.39-.45-6.73-1.01-10.07-1.7-3.67-.62-4.18 4.57-1.08 5.08 3.461.72 6.941 1.31 10.451 1.77zm-25.82-6.11c3.449 1.15 4.859-3.86 1.8-4.88a86.143 86.143 0 0 1-9.271-3.97c-3.119-1.561-5.379 3.13-2.369 4.64 3.2 1.59 6.491 3 9.84 4.21zm-23.46-12.79c2.659 2.12 5.899-1.94 3.26-4.06-2.7-2.16-5.04-4.28-7.431-6.771-.619-.78-2.14-1.1-3.129-.51-1.521.91-1.82 2.62-.66 4.069 2.52 2.622 5.09 5.022 7.96 7.272zm-17.639-20.24c1.369 2.75 6.209.811 4.51-2.58a73.32 73.32 0 0 1-4.431-9.02c-.95-2.86-6.03-1.69-4.819 1.96a79.516 79.516 0 0 0 4.74 9.64zm-9.341-25.04c.53 3.181 5.7 2.561 5.101-1.01-.67-3.39-1.08-6.59-1.44-10.01-.09-.54-.26-.971-.489-1.311h1.1v-8.41c0-1.31-.96-2.369-2.15-2.569a2.608 2.608 0 0 0-3.05 2.569v8.24c-.46.49-.72 1.15-.59 1.92a98.905 98.905 0 0 0 1.518 10.581zm3.171-12.33c-.99-1.489-3.061-1.27-4.101-.17v-1.819h5.2v1.989h-1.099zm-4.871-14.25c0 3.88 5.19 3.36 5.19.36l.16-2.021c.39-.46.62-1.05.62-1.689v-3.4l-5.15-.49.02-.09-.049.261.01-.051c-.441 2.19-.651 4.89-.801 7.12zm.82-7.24-.02.119.02-.119 5.11.949-5.11-.949zm-.05-2.53c0 1.3.96 2.359 2.16 2.56a2.593 2.593 0 0 0 3.04-2.56v-10.41a2.6 2.6 0 0 0-5.2 0v10.41zm0-26.01c0 1.3.96 2.359 2.16 2.56 1.64.271 3.04-.99 3.04-2.56v-10.41c0-1.311-.96-2.36-2.15-2.561a2.597 2.597 0 0 0-3.05 2.561v10.41zm0-26.02c0 1.31.96 2.36 2.16 2.57a2.6 2.6 0 0 0 3.04-2.57v-10.4c0-1.31-.96-2.359-2.15-2.569a2.608 2.608 0 0 0-3.05 2.569v10.4zm-.07-25.941c0 3.25 5.2 3.461 5.2-.14 0-3.42-.29-7.11-.55-10.53-.66-3.92-5.671-2.439-5.19.42.259 3.33.54 6.931.54 10.25zm-2.46-25.469c.54 3.271 5.7 2.55 5.12-.93-.61-3.46-1.31-6.96-2.18-10.36-1.23-3.689-5.98-1.54-5.04 1.29.86 3.21 1.529 6.719 2.1 10zm-6.6-24.65c1.01 3.029 6.029 1.659 4.87-1.82-1.2-3.311-2.62-6.62-4.12-9.811-1.58-3.149-6.17-.72-4.68 2.261 1.43 3.03 2.79 6.22 3.93 9.37zm-11.31-22.72c2.521 3.15 6.11-.649 4.34-2.85-1.939-2.99-3.949-5.86-6.14-8.67-2.17-2.72-6.2.58-4.09 3.22 2.101 2.69 4.03 5.44 5.89 8.3zm-16.039-19.67c3.14 2.521 5.819-1.97 3.609-3.75-2.561-2.479-5.15-4.8-7.891-7.08-2.75-2.199-5.92 1.931-3.31 4.021a128.853 128.853 0 0 1 7.592 6.809zm-19.952-15.79c3.08 1.841 5.591-2.72 2.791-4.399a154.304 154.304 0 0 0-9.131-5.38c-3.229-1.61-5.359 3.14-2.459 4.59 3.001 1.639 5.92 3.339 8.799 5.189zm-22.649-11.8c3.7 1.23 4.819-3.859 2-4.8-3.26-1.36-6.53-2.6-9.86-3.78-3.34-1.12-4.869 3.851-1.709 4.91a180.783 180.783 0 0 1 9.569 3.67zm-24.3-8.15c2.85.949 4.979-3.82 1.31-5.04a234.901 234.901 0 0 0-10.25-2.41c-3.64-.61-4.18 4.57-1.06 5.09 3.36.71 6.68 1.49 10 2.36zm-25.2-5c3.2.529 4.28-4.561.71-5.16-3.439-.47-7.07-.72-10.439-1.23-2.931-.489-4.33 4.54-.49 5.181 3.299.199 6.939.759 10.219 1.209zm-25.63-2.22c3.64 0 3.39-5.189.17-5.189-3.51 0-6.99-.17-10.53-.11-3.33 0-3.45 5.2.08 5.2 3.45-.071 6.85.099 10.28.099zm-25.92.19c1.31 0 2.359-.96 2.56-2.16a2.588 2.588 0 0 0-2.56-3.04h-10.41c-1.3 0-2.36.95-2.561 2.15-.27 1.64.99 3.05 2.561 3.05h10.41zm-26.02 0c1.311 0 2.37-.96 2.57-2.16.27-1.64-.98-3.04-2.561-3.04h-10.409c-1.301 0-2.36.95-2.561 2.15-.27 1.64.98 3.05 2.561 3.05h10.4zm-26.01 0a2.6 2.6 0 1 0 0-5.2h-10.4c-1.31 0-2.359.95-2.56 2.15a2.596 2.596 0 0 0 2.56 3.05h10.4zm-26.01 0c1.31 0 2.359-.96 2.56-2.16a2.588 2.588 0 0 0-2.56-3.04h-10.4c-1.31 0-2.37.95-2.569 2.15a2.607 2.607 0 0 0 2.569 3.05h10.4zm-26.011 0c1.301 0 2.36-.96 2.561-2.16.27-1.64-.98-3.04-2.561-3.04H1160.7c-1.301 0-2.36.95-2.561 2.15-.27 1.64.98 3.05 2.561 3.05h10.409zm-26.019 0a2.6 2.6 0 1 0 0-5.2h-10.4c-1.31 0-2.359.95-2.56 2.15a2.596 2.596 0 0 0 2.56 3.05h10.4zm-26.01 0c1.31 0 2.359-.96 2.569-2.16a2.6 2.6 0 0 0-2.569-3.04h-10.4c-1.31 0-2.359.95-2.56 2.15a2.596 2.596 0 0 0 2.56 3.05h10.4zm-26.01 0c1.31 0 2.359-.96 2.56-2.16a2.588 2.588 0 0 0-2.56-3.04h-10.41c-1.301 0-2.36.95-2.561 2.15-.27 1.64.99 3.05 2.561 3.05h10.41zm-26.01 0c1.3 0 2.36-.96 2.561-2.16.27-1.64-.98-3.04-2.561-3.04h-10.41a2.6 2.6 0 0 0 0 5.2h10.41zm-26.02 0a2.6 2.6 0 1 0 0-5.2h-10.4c-1.31 0-2.36.95-2.56 2.15a2.596 2.596 0 0 0 2.56 3.05h10.4zm-26.011 0c1.311 0 2.36-.96 2.561-2.16.28-1.64-.98-3.04-2.561-3.04h-10.399c-1.31 0-2.37.95-2.57 2.15-.27 1.64.99 3.05 2.57 3.05h10.399zm-26.009 0c1.301 0 2.36-.96 2.561-2.16.27-1.64-.98-3.04-2.561-3.04h-10.41a2.6 2.6 0 0 0 0 5.2h10.41zm-26.01 0a2.599 2.599 0 0 0 0-5.2H952.6c-1.31 0-2.359.95-2.56 2.15a2.6 2.6 0 0 0 2.56 3.05h10.41zm-26.02 0c1.31 0 2.359-.96 2.56-2.16a2.588 2.588 0 0 0-2.56-3.04h-10.4c-1.311 0-2.36.95-2.561 2.15a2.597 2.597 0 0 0 2.561 3.05h10.4zm-26.011 0c1.311 0 2.36-.96 2.561-2.16.27-1.64-.98-3.04-2.561-3.04H900.57c-1.301 0-2.36.95-2.561 2.15-.27 1.64.99 3.05 2.561 3.05h10.409zm-26.009 0c1.3 0 2.36-.96 2.56-2.16a2.593 2.593 0 0 0-2.56-3.04h-10.41a2.6 2.6 0 0 0 0 5.2h10.41zm-26.021 0a2.6 2.6 0 1 0 0-5.2H848.55c-1.31 0-2.36.95-2.56 2.15a2.596 2.596 0 0 0 2.56 3.05h10.399zm-26.01 0c1.311 0 2.36-.96 2.561-2.16a2.59 2.59 0 0 0-2.561-3.04H822.54c-1.311 0-2.37.95-2.57 2.15a2.608 2.608 0 0 0 2.57 3.05h10.399zm-26.009 0c1.3 0 2.36-.96 2.561-2.16.27-1.64-.98-3.04-2.561-3.04h-10.41a2.6 2.6 0 0 0 0 5.2h10.41zm-26.02 0a2.6 2.6 0 1 0 0-5.2c-3.49 0-6.971 0-10.471.08-3.26 0-3.46 5.21.141 5.21 3.449-.09 6.88-.09 10.33-.09zm-25.711 1.02c3.79-.63 2.45-5.67-.52-5.18-3.48.34-7.04.76-10.48 1.33-3.409.57-2.52 5.7.83 5.14 3.34-.55 6.801-.97 10.17-1.29zm-25.17 4.43c3.59-1.2 1.54-5.99-1.369-5.021-3.41.91-6.82 1.96-10.141 3.17-3.06 1.021-1.64 6.03 1.79 4.88a122.013 122.013 0 0 1 9.72-3.029zm-23.59 9.24c2.84-1.42.78-6.21-2.51-4.56a90.419 90.419 0 0 0-9.08 5.66c-2.96 2.37.62 6.149 3.02 4.24a84.122 84.122 0 0 1 8.57-5.34zm-20 15.18c2.48-3.101-1.96-5.84-3.779-3.57-2.49 2.62-4.75 5.3-6.91 8.2-1.98 2.479 1.899 5.939 4.199 3.07 1.961-2.7 4.191-5.28 6.49-7.7zm-14.4 20.62c1.541-3.07-3.119-5.391-4.649-2.33-1.57 3.25-3 6.39-4.29 9.76-1.17 3.51 3.86 4.85 4.86 1.85a131.148 131.148 0 0 1 4.079-9.28zm-8.619 23.869c.92-2.76-3.811-4.989-5.061-1.239-.85 3.42-1.56 6.88-2.189 10.35-.58 3.44 4.569 4.22 5.119.9.601-3.35 1.301-6.7 2.131-10.011zm-4.221 25.271c.49-2.96-4.539-4.32-5.17-.51-.319 3.52-.55 6.979-.8 10.489 0 3.79 5.2 3.37 5.2.28.18-3.429.461-6.829.77-10.259zm-1.22 25.729c0-3.439-5.2-3.42-5.2-.01v10.41c0 1.3.961 2.36 2.15 2.561 1.64.27 3.05-.98 3.05-2.561v-10.4zm0 26.011c0-1.311-.96-2.37-2.16-2.57-1.63-.27-3.04.99-3.04 2.57v10.399c0 1.311.961 2.36 2.15 2.561 1.641.28 3.05-.98 3.05-2.561V933.99zm0 26.01c0-1.31-.96-2.36-2.16-2.56a2.592 2.592 0 0 0-3.04 2.56v10.4c0 1.31.961 2.37 2.15 2.569a2.607 2.607 0 0 0 3.05-2.569V960zm0 26.01c0-1.3-.96-2.359-2.16-2.56a2.597 2.597 0 0 0-3.04 2.56v10.41a2.6 2.6 0 0 0 5.2 0v-10.41zm0 26.011c0-1.301-.96-2.36-2.16-2.561-1.63-.27-3.04.98-3.04 2.561v10.409c0 1.3.961 2.36 2.15 2.561 1.641.27 3.05-.98 3.05-2.561v-10.409z"></path><path fill="#D0D3D4" d="M1802.109 715.19c0 5.739-4.649 10.39-10.39 10.39-5.739 0-10.39-4.65-10.39-10.39s4.65-10.391 10.39-10.391c5.741.001 10.39 4.651 10.39 10.391zm-49.349 0c0 5.739-4.65 10.39-10.39 10.39s-10.39-4.65-10.39-10.39 4.649-10.391 10.39-10.391c5.739.001 10.39 4.651 10.39 10.391zm-49.35 0c0 5.739-4.65 10.39-10.391 10.39-5.739 0-10.39-4.65-10.39-10.39s4.65-10.391 10.39-10.391c5.741.001 10.391 4.651 10.391 10.391zm-49.349 0c0 5.739-4.65 10.39-10.391 10.39s-10.39-4.65-10.39-10.39 4.649-10.391 10.39-10.391 10.391 4.651 10.391 10.391zm148.048 59.09c0 5.74-4.649 10.39-10.39 10.39-5.739 0-10.39-4.649-10.39-10.39s4.65-10.391 10.39-10.391c5.741.001 10.39 4.651 10.39 10.391zm-49.349 0c0 5.74-4.65 10.39-10.39 10.39s-10.39-4.649-10.39-10.39 4.649-10.391 10.39-10.391c5.739.001 10.39 4.651 10.39 10.391zm-49.35 0c0 5.74-4.65 10.39-10.391 10.39-5.739 0-10.39-4.649-10.39-10.39s4.65-10.391 10.39-10.391c5.741.001 10.391 4.651 10.391 10.391zm-49.349 0c0 5.74-4.65 10.39-10.391 10.39s-10.39-4.649-10.39-10.39 4.649-10.391 10.39-10.391 10.391 4.651 10.391 10.391zm916.349 1566.48c0 5.73-4.65 10.39-10.391 10.39-5.739 0-10.39-4.659-10.39-10.39 0-5.739 4.65-10.39 10.39-10.39 5.741 0 10.391 4.651 10.391 10.39zm-49.349 0c0 5.73-4.65 10.39-10.391 10.39s-10.39-4.659-10.39-10.39c0-5.739 4.649-10.39 10.39-10.39s10.391 4.651 10.391 10.39zm-49.351 0c0 5.73-4.649 10.39-10.39 10.39s-10.391-4.659-10.391-10.39c0-5.739 4.65-10.39 10.391-10.39s10.39 4.651 10.39 10.39zm-49.35 0c0 5.73-4.65 10.39-10.39 10.39s-10.391-4.659-10.391-10.39c0-5.739 4.65-10.39 10.391-10.39 5.74 0 10.39 4.651 10.39 10.39z"></path><path fill="#7DA3FB" d="M880.13 1737.84c5.17 0 9.851 2.101 13.24 5.49s5.49 8.069 5.49 13.25c0 5.16-2.101 9.85-5.49 13.24-3.39 3.39-8.07 5.489-13.24 5.489s-9.86-2.1-13.25-5.489a18.687 18.687 0 0 1-5.49-13.24c0-5.181 2.101-9.86 5.49-13.25s8.08-5.49 13.25-5.49zm5.85 12.88a8.294 8.294 0 0 0-11.711 0 8.292 8.292 0 0 0 0 11.71c1.5 1.5 3.57 2.42 5.86 2.42 2.28 0 4.351-.92 5.851-2.42s2.42-3.569 2.42-5.85c0-2.29-.92-4.36-2.42-5.86z"></path><path fill="#FFE072" d="M565.9 788.43c7.13 0 12.91 5.78 12.91 12.91 0 7.12-5.78 12.9-12.91 12.9-7.12 0-12.9-5.78-12.9-12.9 0-7.13 5.78-12.91 12.9-12.91z"></path><path fill="#7DA3FB" d="M632.02 741.6a18.67 18.67 0 0 1 13.24 5.49c3.391 3.39 5.49 8.07 5.49 13.24s-2.1 9.86-5.49 13.25c-3.39 3.39-8.07 5.479-13.24 5.479s-9.859-2.09-13.25-5.479c-3.39-3.39-5.489-8.08-5.489-13.25s2.1-9.851 5.489-13.24c3.39-3.39 8.08-5.49 13.25-5.49zm5.85 12.879a8.246 8.246 0 0 0-5.851-2.42c-2.289 0-4.359.92-5.859 2.42-1.49 1.49-2.42 3.561-2.42 5.851s.93 4.36 2.42 5.86a8.294 8.294 0 0 0 11.71 0c1.5-1.5 2.42-3.57 2.42-5.86s-.92-4.36-2.42-5.851z"></path><path fill="#FF845E" d="M1476.51 684.65c7.131 0 12.91 5.779 12.91 12.909 0 7.12-5.779 12.9-12.91 12.9-7.119 0-12.9-5.78-12.9-12.9-.001-7.129 5.781-12.909 12.9-12.909z"></path><path fill="#FD3E42" d="M1374.359 1110.37c10.49 0 19 8.51 19 19.01s-8.51 19-19 19c-10.5 0-19.01-8.5-19.01-19s8.51-19.01 19.01-19.01z"></path><path fill="#647EDD" d="M1700.561 894.5c16.039 0 29.05 13 29.05 29.04 0 3.22-.53 6.31-1.49 9.21 1.19-.12 2.399-.18 3.62-.18 19.85 0 35.939 16.09 35.939 35.93 0 19.85-16.09 35.94-35.939 35.94h-158.52c-16.041 0-29.051-13-29.051-29.04 0-13.511 9.23-24.87 21.721-28.11a35.936 35.936 0 0 1-2.031-11.93c0-19.851 16.091-35.94 35.94-35.94 1.38 0 2.729.08 4.07.23 2.479-21.38 20.649-37.971 42.7-37.971 21.109 0 38.66 15.21 42.3 35.271a28.857 28.857 0 0 1 11.691-2.45z"></path><path fill="#353640" d="M1731.74 1006.525h-158.52c-17.168 0-31.135-13.962-31.135-31.125 0-13.444 8.603-25.276 21.173-29.501a38.026 38.026 0 0 1-1.483-10.539c0-20.967 17.058-38.025 38.025-38.025.763 0 1.518.022 2.276.068 3.503-21.692 22.283-37.809 44.494-37.809a2.086 2.086 0 0 1 0 4.17c-20.773 0-38.24 15.531-40.63 36.126a2.087 2.087 0 0 1-2.304 1.832c-20.345-2.28-37.692 13.692-37.692 33.638 0 3.842.644 7.624 1.913 11.239a2.086 2.086 0 0 1-1.444 2.709c-11.869 3.08-20.158 13.809-20.158 26.092 0 14.863 12.097 26.955 26.965 26.955h158.521a2.086 2.086 0 0 1-.001 4.17z"></path><path fill="#FFF" d="M1655.92 992.965a2.086 2.086 0 0 1-2.085-2.085v-76.356l-24.671 24.67a2.086 2.086 0 0 1-2.949-2.948l28.23-28.229.005-.005h.001a2.078 2.078 0 0 1 1.321-.6h.004a2.076 2.076 0 0 1 1.629.617l28.229 28.218a2.085 2.085 0 1 1-2.947 2.949l-24.682-24.672v76.357c0 1.15-.934 2.084-2.085 2.084z"></path><path fill="#FFE072" d="M1126.15 931.1c37.97 0 68.76 30.79 68.76 68.771 0 9.45-1.91 18.45-5.35 26.64l-.011.021a68.691 68.691 0 0 1-6.8 12.399c-25.26 47.4-27 67.95-27 67.95h-59.21s-1.74-20.55-26.99-67.95a68.77 68.77 0 0 1-6.81-12.399l-.01-.021h.01c-3.45-8.189-5.36-17.189-5.36-26.64.001-37.981 30.791-68.771 68.771-68.771z"></path><path fill="#353640" d="M1158.6 1108.965h-64.9a2.086 2.086 0 0 1-2.078-1.908c-.02-.219-2.298-22.859-29.306-73.581a77.679 77.679 0 0 1-7.597-13.865 1.83 1.83 0 0 1-.047-.123c-3.973-9.489-5.987-19.55-5.987-29.909 0-42.714 34.75-77.465 77.465-77.465 42.708 0 77.454 34.75 77.454 77.465 0 10.336-2.006 20.378-5.962 29.851a1.971 1.971 0 0 1-.12.294 77.51 77.51 0 0 1-7.548 13.75c-27.008 50.721-29.278 73.362-29.298 73.585a2.088 2.088 0 0 1-2.076 1.906zm-63.079-4.17h61.257c1.049-6.466 6.141-29.402 29.572-73.386.038-.07.08-.139.125-.205a73.384 73.384 0 0 0 7.209-13.108c.014-.038.028-.076.044-.114 3.786-9.007 5.706-18.563 5.706-28.402 0-40.415-32.875-73.295-73.284-73.295-40.415 0-73.295 32.88-73.295 73.295 0 9.84 1.92 19.396 5.707 28.402.016.037.03.074.043.112a73.441 73.441 0 0 0 7.208 13.108c.046.066.088.136.126.207 23.434 43.987 28.531 66.922 29.582 73.386z"></path><path fill="#FFF" d="M1126.15 1108.965a2.086 2.086 0 0 1-2.085-2.085v-76.184c-6.975-2.876-28.133-12.452-25.682-21.814.808-3.086 4.691-5.265 11.873-6.66 4.166-.809 9.424-1.324 14.941-1.515-1.234-5.203-1.753-11.908-1.138-20.536a2.084 2.084 0 1 1 4.159.297c-.629 8.83-.021 15.349 1.259 20.157 13.084-.037 26.369 1.703 29.305 5.651 1.233 1.663 1.056 3.864-.472 5.891-3.068 4.072-12.176 8.216-20.615 5.053-4.109-1.539-8.542-4.988-11.268-12.394-5.335.12-10.69.579-15.377 1.489-8.005 1.555-8.612 3.538-8.634 3.622-1.25 4.777 13.88 13.215 24.5 17.413a2.083 2.083 0 0 1 1.318 1.939v77.59a2.084 2.084 0 0 1-2.084 2.086zm4.776-104.16c1.758 3.98 4.064 6.26 6.246 7.558 5.125 3.048 11.66 1.747 15.562-.75 2.144-1.372 2.728-2.584 2.698-2.872-1.521-2.033-12.448-3.792-24.506-3.936z"></path><path fill="#2A1D19" d="M1146.52 1155.445h-40.739c-6.989 0-12.675-5.686-12.675-12.675v-4.351c0-6.989 5.686-12.675 12.675-12.675h40.739c6.989 0 12.676 5.686 12.676 12.675v4.351c-.001 6.989-5.687 12.675-12.676 12.675zm-40.74-25.53c-4.689 0-8.505 3.815-8.505 8.505v4.351c0 4.689 3.815 8.505 8.505 8.505h40.739c4.69 0 8.506-3.815 8.506-8.505v-4.351c0-4.689-3.816-8.505-8.506-8.505h-40.739z"></path><path fill="#FD3E42" d="M1093.27 1106.88h65.75c6.12 0 11.12 5 11.12 11.12v4.57c0 6.109-5 11.109-11.12 11.109h-65.75c-6.119 0-11.119-5-11.119-11.109V1118c-.001-6.12 4.999-11.12 11.119-11.12z"></path><path fill="#2A1D19" d="M1159.02 1135.765h-65.75c-7.281 0-13.204-5.919-13.204-13.194V1118c0-7.281 5.923-13.205 13.204-13.205h65.75c7.281 0 13.205 5.924 13.205 13.205v4.57c0 7.276-5.924 13.195-13.205 13.195zm-65.75-26.8c-4.981 0-9.034 4.053-9.034 9.035v4.57c0 4.976 4.053 9.024 9.034 9.024h65.75c4.982 0 9.035-4.048 9.035-9.024V1118c0-4.982-4.053-9.035-9.035-9.035h-65.75z"></path><path fill="#353640" d="M724.9 1329.505H585.86c-27.242 0-49.405-22.163-49.405-49.405v-139.04c0-27.242 22.163-49.404 49.405-49.404H724.9c27.242 0 49.404 22.163 49.404 49.404v139.04c.001 27.242-22.162 49.405-49.404 49.405zm-139.04-233.68c-24.943 0-45.235 20.292-45.235 45.234v139.04c0 24.943 20.292 45.235 45.235 45.235H724.9c24.942 0 45.234-20.292 45.234-45.235v-139.04c0-24.942-20.292-45.234-45.234-45.234H585.86z"></path><path fill="#FD3E42" d="m629.24 1197.07 27.83 48.21 10.67 18.48 2.99-5.19 20.16-34.9 20.15 34.9 20.16 34.909H573.58l27.83-48.199zm42.01-34.75c9.71 0 17.58 7.88 17.58 17.59s-7.87 17.58-17.58 17.58c-9.72 0-17.59-7.87-17.59-17.58s7.87-17.59 17.59-17.59z"></path><path fill="#353640" d="M881.41 1476.805H742.38c-27.248 0-49.415-22.163-49.415-49.404v-69.521a2.086 2.086 0 0 1 4.17 0v69.521c0 24.942 20.297 45.234 45.245 45.234h139.03c24.943 0 45.235-20.292 45.235-45.234v-139.03c0-24.948-20.292-45.245-45.235-45.245h-78.34a2.086 2.086 0 0 1 0-4.17h78.34c27.242 0 49.405 22.167 49.405 49.415v139.03c0 27.241-22.163 49.404-49.405 49.404z"></path><path fill="#FFE072" d="m785.75 1344.37 27.83 48.21 10.68 18.48 2.99-5.18 20.15-34.91 20.15 34.91 20.16 34.91H730.09l27.83-48.21zm42.01-34.74c9.71 0 17.58 7.87 17.58 17.58s-7.87 17.59-17.58 17.59-17.59-7.88-17.59-17.59 7.88-17.58 17.59-17.58zm62.71 585.13s-38.76 2.7-76.63 27.15l-3.08 34.41s-2.82-15.7-5.2-28.69c-24.27 17.94-46.97 45.561-57.35 88.051-1.34 5.459-2.57 10.8-3.7 16.01l11.44 23.04-14.811-6.39C724 2139.74 723.31 2216 723.31 2216s60.55-89.59 94.561-179.77l-18.2-22.98 22.77 10.5c34.109-94.95 68.029-128.989 68.029-128.99z"></path><path fill="#A5C250" d="M634.08 1640.271s-37.34 113.869-31.12 200.369l70.95 19.92-54.771 36.091s42.32 130.68 54.141 197.89c0-.001 143.14-207.221-39.2-454.27z"></path><path fill="#3D4525" d="M642.2 2413.605a2.084 2.084 0 0 1-2.084-2.073c-.003-.593-.429-60.173-7.837-132.025-6.825-66.203-21.137-156.652-50.556-211.593-19.71-36.808-48.993-55.809-84.686-54.909-50.54 1.254-106.86 42.896-135.649 99.718 15.619-5.466 65.555-20.495 113.769-8.651l50.637-42.331a2.085 2.085 0 0 1 3.21 2.518l-26.106 53.234c5.305 2.342 20.031 9.566 38.437 24.687 20.893 17.164 50.573 48.185 73.318 98.492a2.085 2.085 0 0 1-3.8 1.719c-22.371-49.48-51.503-79.981-72.003-96.855-22.217-18.288-39.37-24.962-39.541-25.026a2.088 2.088 0 0 1-1.128-2.867l22.758-46.406-43.918 36.715a2.082 2.082 0 0 1-1.85.421c-56.771-14.401-116.555 9.8-117.152 10.047a2.087 2.087 0 0 1-2.68-2.819c28.648-60.537 88.198-105.438 141.599-106.763 26.072-.629 62.562 8.736 88.465 57.109 29.744 55.547 44.169 146.583 51.032 213.172 7.425 72.047 7.851 131.796 7.854 132.392a2.085 2.085 0 0 1-2.073 2.097c-.008-.003-.012-.003-.016-.003zm31.082 2.57c-.693 0-1.37-.345-1.767-.974-.344-.548-8.482-13.933-12.563-60.331-3.735-42.462-4.64-122.139 12.258-260.583 16.846-138.007 5.31-253.94-7.333-326.895-13.69-78.995-31.563-125.908-31.743-126.373a2.084 2.084 0 1 1 3.891-1.498c.18.468 18.2 47.765 31.96 127.159 12.691 73.23 24.271 189.6 7.364 328.112-32.208 263.871-.628 317.674-.305 318.186a2.086 2.086 0 0 1-1.762 3.197zm14.489 0a2.085 2.085 0 0 1-2.083-2.212c8.675-142.036 43.06-245.062 70.689-327.844 4.354-13.045 8.466-25.366 12.267-37.226 27.5-85.836 89.639-134.444 90.263-134.925a2.084 2.084 0 1 1 2.545 3.303c-.614.474-61.749 48.345-88.837 132.895-3.808 11.883-7.924 24.216-12.282 37.273-27.552 82.551-61.841 185.288-70.482 326.777a2.086 2.086 0 0 1-2.08 1.959z"></path><path fill="#FCCAC3" d="M1986.17 1628.729c35.61-4.68 27.35 26.44 27.35 26.44 23.4 18.24-2.069 40.61-2.069 40.61 49.6 13.52-50.181 103.79-59.87 73.64-22.37 25.46-61.6 22.021-61.6 22.021l-76.561-48.851c11.42-21.63 125.48-220.25 163.35-198.54 19.011 10.9-25.569 66.79-44.51 90.15 17.08-13.86 38.631-26.57 52.521-17.391 3.799 2.512 3.799 6.752 1.389 11.921z"></path><path fill="#2A1D19" d="M1941.127 1715.143c-6.318 0-11.521-2.268-14.962-6.607-4.133-5.213-4.865-12.712-1.91-19.57 2.947-6.834 15.244-17.063 28.263-27.893 11.458-9.531 23.306-19.387 29.103-27.141 4.315-5.769 5.309-11.155 2.656-14.411-3.502-4.3-13.713-5.506-28.631 1.497-25.693 12.05-49.711 41.237-49.95 41.53a2.086 2.086 0 0 1-3.231-2.637c1.002-1.228 24.846-30.21 51.409-42.669 14.908-6.997 28.11-7.138 33.636-.355 3.94 4.837 2.986 12.142-2.551 19.542-6.091 8.147-18.131 18.163-29.774 27.85-12.069 10.039-24.549 20.42-27.1 26.337-2.347 5.446-1.831 11.32 1.348 15.329 3.361 4.24 9.133 5.874 16.251 4.604 13.845-2.475 52.554-41.832 66.301-56.789a2.085 2.085 0 0 1 3.07 2.822c-2.057 2.237-50.583 54.845-68.638 58.072a30.281 30.281 0 0 1-5.29.489z"></path><path fill="#2A1D19" d="M1948.328 1746.584c-6.144 0-9.495-2.372-11.321-4.86-4.779-6.512-2.377-18.347 6.121-30.151a2.085 2.085 0 0 1 3.385 2.435c-7.194 9.994-9.721 20.376-6.145 25.249 2.783 3.79 9.47 4.172 18.837 1.073 26.203-8.67 50.267-45.317 50.507-45.687a2.084 2.084 0 1 1 3.496 2.274c-1.013 1.558-25.115 38.247-52.693 47.372-4.955 1.639-8.957 2.295-12.187 2.295z"></path><path fill="#2A1D19" d="M1962.979 1776.899c-5.771 0-13.168-2.019-15.578-9.694-3.484-11.101-.676-22.727-.554-23.217a2.083 2.083 0 0 1 4.047 1.002c-.027.108-2.642 11.007.484 20.966 2.76 8.784 15.034 6.474 15.157 6.448a2.085 2.085 0 1 1 .806 4.092 22.97 22.97 0 0 1-4.362.403z"></path><path fill="#FD3E42" d="M1488.33 1760.26s29.82 2.28 63.09 105.521 45.891 138.8 45.891 138.8c45.159 94.729 94.369 207.32 47.93 220.92-10.29 1.229-21.29 1.47-33.021.46-106.68-9.18-175.51-91.77-175.51-91.77-135.96-172.351-41.56-400.011 51.62-373.931z"></path><path fill="#2A1D19" d="M1604.329 2024.375c-.461 0-.925-.151-1.311-.464-34.131-27.626-77.647-25.509-78.08-25.479a2.091 2.091 0 0 1-2.2-1.964 2.086 2.086 0 0 1 1.964-2.2c1.845-.103 45.57-2.225 80.939 26.401a2.086 2.086 0 0 1-1.312 3.706z"></path><path fill="#FD3E42" d="m1597.311 2004.58 217.939-297.101 99.8 89.471-150.26 344.13s-36.36 74.521-119.59 84.43c-26.91.66-88.58-22.45-91.92-86.88-3.35-64.449 44.031-134.05 44.031-134.05z"></path><path fill="#2A1D19" d="M1560.809 2057.855a2.083 2.083 0 0 1-1.682-3.314l254.439-348.291a2.082 2.082 0 0 1 2.913-.454 2.083 2.083 0 0 1 .454 2.913L1562.494 2057a2.078 2.078 0 0 1-1.685.855z"></path><path fill="#FD3E42" d="m1180.311 1725.29 121.579-7.73s146.29 22.051 186.44 42.7l-22.939 653.83H917.07l84.29-605.06 178.951-83.74z"></path><path fill="#2A1D19" d="M1215.098 1842.775c-.318 0-.64-.072-.943-.226-28.178-14.311-45.878-41.15-55.764-61.146-10.673-21.586-14.673-39.535-14.838-40.288a2.083 2.083 0 0 1 1.59-2.482 2.084 2.084 0 0 1 2.483 1.59c.158.719 16.379 72.181 68.417 98.607a2.087 2.087 0 0 1-.945 3.945zm110.065-50.22a2.084 2.084 0 0 1-2.069-2.358c4.096-31.093-3.469-68.703-3.546-69.079a2.086 2.086 0 0 1 1.625-2.461 2.089 2.089 0 0 1 2.46 1.626c.078.383 7.781 38.68 3.594 70.459a2.085 2.085 0 0 1-2.064 1.813zm140.229 623.62-.075-.001a2.084 2.084 0 0 1-2.01-2.157l18.029-514.01a2.084 2.084 0 1 1 4.167.146l-18.029 514.01a2.084 2.084 0 0 1-2.082 2.012z"></path><path fill="#FCCAC3" d="M1146.46 1634.39s14.91 57.931 22.36 99.801c7.46 41.869 53.35 106.68 102.67 98.649 49.33-8.03 30.399-115.28 30.399-115.28l7.181-90.34-162.61 7.17z"></path><path fill="#2A1D19" d="m1302.96 1704.17 6.11-76.95-156.75 6.91c19.52 34.26 62.02 86.56 150.64 70.04z"></path><path fill="#FCCAC3" d="M1305.39 1391.69s35.101 109.43 50.251 196.84c15.14 87.41-117.011 141.09-217.49 50.239-100.49-90.85-8.261-231.26-8.261-231.26l175.5-15.819z"></path><path fill="#2A1D19" d="M1042.48 1439.86s-35.801-8.261-29.601 39.92c6.2 48.18 85.64 132.41 101.47 131.72 15.82-.69 14.851-122.08 14.851-122.08s34.41-18.58 28.899-71.58c0 0 109.44 11.7 184.46-6.189 75.03-17.9 80.53-157.62 3.45-123.891 0 0-15.14-70.89-75.02-19.96-59.88 50.93-275.999 11.7-228.509 172.06z"></path><path fill="#FCCAC3" d="M1139.87 1549.979c-103.8-66.6-107.11 89.33 8.26 70.551l-8.26-70.551z"></path><path fill="#2A1D19" d="M1191.29 1489.79s47.29-21.98 63.19-20.93c15.909 1.05 5.649-21.34-13.811-16.95-19.459 4.4-62.349 33.9-49.379 37.88zm145.55-27.01s-33.859-5.471-43.46.68c-9.6 6.141-8.01-18.37 4.94-20.51 12.95-2.15 45.69 11.86 38.52 19.83zm-109.399 50.665-.068-.001a2.085 2.085 0 0 1-2.017-2.15c.152-4.763 4.236-9.557 10.405-12.212 6.813-2.935 13.92-2.212 18.543 1.889a2.085 2.085 0 1 1-2.766 3.119c-4.064-3.604-9.962-2.972-14.127-1.179-4.545 1.958-7.789 5.459-7.886 8.516a2.086 2.086 0 0 1-2.084 2.018zm78.142-17.749a2.084 2.084 0 0 1-2.066-2.383c.588-4.087 4.53-7.813 10.041-9.492 6.059-1.847 12.027-.55 15.58 3.381a2.085 2.085 0 1 1-3.095 2.795c-2.936-3.25-7.747-3.262-11.27-2.187-3.849 1.173-6.781 3.68-7.129 6.098a2.085 2.085 0 0 1-2.061 1.788zm-307.293-27.861a2.085 2.085 0 0 1-1.964-2.787c.333-.929 8.338-22.812 25.925-28.787 9.235-3.138 19.29-1.268 29.887 5.557a2.085 2.085 0 1 1-2.258 3.506c-9.468-6.097-18.306-7.818-26.272-5.12-15.674 5.314-23.281 26.042-23.355 26.25a2.087 2.087 0 0 1-1.963 1.381z"></path><path fill="#FFF" d="M1048.497 1410.924a2.084 2.084 0 0 1-2.067-1.834c-.084-.693-1.968-17.175 5.479-35.155 6.892-16.638 23.39-37.588 62.852-42.912a2.081 2.081 0 0 1 2.345 1.788 2.085 2.085 0 0 1-1.788 2.345c-30.032 4.052-50.048 17.584-59.492 40.221-7.086 16.986-5.276 33.054-5.256 33.214a2.086 2.086 0 0 1-2.073 2.333zm336.882-54.819a2.085 2.085 0 0 1-1.858-3.028c.125-.246 12.324-24.843 1.283-45.36-2.978-5.529-7.059-9.079-12.127-10.551-9.916-2.88-20.48 2.953-20.585 3.012a2.084 2.084 0 1 1-2.042-3.636c.493-.277 12.212-6.742 23.79-3.381 6.183 1.795 11.107 6.027 14.636 12.579 12.088 22.463-.687 48.142-1.236 49.224a2.087 2.087 0 0 1-1.861 1.141z"></path><path fill="#2A1D19" d="M1303.978 1558.586c-7.726.001-15.387-1.545-16.943-1.877a2.085 2.085 0 0 1 .87-4.078c8.689 1.851 27.305 3.651 29.387-2.591 2.054-6.161-16.399-31.653-30.158-47.787a2.085 2.085 0 0 1 3.172-2.706c5.789 6.788 34.485 41.184 30.941 51.812-1.905 5.711-9.619 7.227-17.269 7.227z"></path><path fill="#FFF" d="M1255.32 1567.59s30.41 5.62 46.609 5.29c16.2-.33 18.01 20.99 2.811 28.59-15.21 7.61-42.811 6.95-55.7-12.89-12.89-19.83 1.32-23.47 6.28-20.99z"></path><path fill="#2A1D19" d="M1132.442 1587.505c-.671 0-1.33-.323-1.732-.922-3.16-4.703-6.344-8.655-9.503-11.973-17.881-4.125-31.649 4.524-31.788 4.612a2.088 2.088 0 0 1-2.88-.625 2.083 2.083 0 0 1 .62-2.879c.554-.358 12.252-7.762 28.658-6.201-20.841-17.579-39.188-9.508-39.413-9.404a2.086 2.086 0 0 1-1.746-3.788c.325-.149 8.079-3.641 19.374-1.866 7.796 1.228 18.493 5.26 29.575 16.635.144.114.271.246.379.392 3.386 3.524 6.806 7.739 10.186 12.771a2.085 2.085 0 0 1-1.73 3.248zm7.627 38.642c-34.189 0-53.936-13.678-54.864-14.336a2.085 2.085 0 0 1 2.408-3.404c.247.173 25.059 17.271 66.363 12.81a2.085 2.085 0 1 1 .448 4.147c-5.03.542-9.822.783-14.355.783z"></path><path fill="#FD3E42" d="M1093.939 1984.42c20.091-60.26-35.8-205.79-92.58-175.39-56.779 30.399-93.479 107.25-127.89 203.6-34.42 96.36-75.71 243.19-75.71 243.19s-27.52 58.5 19.51 129.62c22.42 33.909 58.92 49.81 102.28 52.459 53.71-2.819 56.22-118.909 105.351-246.319l69.039-207.16z"></path><path fill="#2A1D19" d="M1024.9 2193.665a2.09 2.09 0 0 1-1.249-.415c-.283-.211-29.09-21.153-81.137-16.273-1.148.092-2.163-.735-2.27-1.882a2.086 2.086 0 0 1 1.881-2.271c45.79-4.291 73.662 10.471 81.663 15.498l60.313-180.981a2.086 2.086 0 0 1 3.956 1.319l-61.18 183.58a2.085 2.085 0 0 1-1.977 1.425z"></path><path fill="#FCCAC3" d="M1321.09 2123.89s217.35-129.56 222.49-100.31c5.14 29.26-57.13 49.01-110.04 80.28 0 0 55.96-27.341 98.53-9.061 42.569 18.28 41.34 68.22 26.42 68.939-14.93.711-21.32-66.84-111.471-32.6 0 0 62.34 22.09 87.051 61.45 24.71 39.36 3.06 48.729-20.25 17.229-23.311-31.5-75.801-43.399-75.801-43.399s54.82 36.76 66.15 71.649c11.32 34.891-15.85 31.21-33.99 1.351-18.149-29.86-48.72-37.11-48.72-37.11s-16.34 39.98-82.01 5.86-18.359-84.278-18.359-84.278z"></path><path fill="#FD3E42" d="M919.36 2437.89c47.64 2.96 103.6-10.109 158.3-32.949 104.38-43.591 301.689-161.74 301.689-161.74s-8.029-80.301-58.5-141.101l-295.949 89.48s-137.46 38.29-171.771 95.2c-34.299 56.89-23.829 138.15 66.231 151.11z"></path><path fill="#2A1D19" d="M1381.877 2245.865a2.085 2.085 0 0 1-2.063-1.803c-10.843-79.413-53.092-131.842-59.655-139.575a3206069.851 3206069.851 0 0 0-294.655 89.089c-48.07 14.528-96.495 37.155-96.979 37.382a2.084 2.084 0 1 1-1.771-3.775c.486-.229 49.187-22.983 97.543-37.599 48.769-14.75 183.049-55.351 295.949-89.479a2.089 2.089 0 0 1 2.15.598c.496.548 49.67 55.794 61.55 142.796a2.085 2.085 0 0 1-2.069 2.366z"></path><path fill="#2A1D19" d="M993.799 2433.616a2.085 2.085 0 0 1-.61-4.08c.793-.243 80.26-24.755 164.315-64.76 79.38-37.788 194.749-107.683 208.518-116.063-3.253-11.254-25.042-82.872-63.711-124.567a2.085 2.085 0 1 1 3.058-2.836c42.546 45.876 64.883 126.999 65.104 127.813a2.085 2.085 0 0 1-.924 2.324c-1.25.765-125.948 76.962-210.252 117.095-84.344 40.142-164.09 64.737-164.886 64.98-.204.064-.41.094-.612.094z"></path><path fill="#949899" d="M1430.12 2414.09h737.81v-33.23h-737.81z"></path><path fill="#D0D3D4" d="M1695.05 2414.09h472.88l103.92-388.37h-472.89z"></path><path fill="#FFF" d="M1993.76 2181.36c21.29 0 33.93 17.26 28.23 38.55-5.69 21.28-27.57 38.54-48.86 38.54-21.28 0-33.92-17.26-28.229-38.54 5.699-21.29 27.569-38.55 48.859-38.55z"></path><path fill="#2A1D19" d="M1430.12 2416.175a2.086 2.086 0 0 1-2.085-2.085v-33.229c0-1.151.934-2.085 2.085-2.085h273.819a2.086 2.086 0 0 1 0 4.17h-271.734v31.145c0 1.15-.934 2.084-2.085 2.084zm841.73-388.37h-472.89a2.086 2.086 0 0 1 0-4.17h472.89a2.086 2.086 0 0 1 0 4.17z"></path><path fill="#353640" d="M2731.42 2416.175H1113.37a2.086 2.086 0 0 1 0-4.17h1618.05a2.086 2.086 0 0 1 0 4.17zm-1922.7 0H327.68a2.086 2.086 0 0 1 0-4.17h481.04a2.085 2.085 0 0 1 0 4.17z"></path></svg>